<svg width="66" height="50" viewBox="0 0 66 50" fill="none" xmlns="http://www.w3.org/2000/svg">
<path d="M53.7058 0.490371L12.6746 0.198629C7.58236 6.51984 5.08987 9.69158 0.351781 16.0475C10.8858 26.7432 21.6798 37.1078 32.6783 47.4201C42.9123 36.8721 53.4446 26.6592 64.1053 16.5008C59.748 10.0802 57.709 6.87626 53.7058 0.490371Z" fill="#9B978A"/>
<path d="M53.7368 0.630508L12.6948 0.338689C7.60254 6.67064 5.11006 9.84237 0.382787 16.1877C10.9167 26.894 21.7108 37.2587 32.7308 47.5604C42.954 37.0124 53.4971 26.7995 64.0934 16.6406C59.8222 10.1884 57.7402 6.98418 53.7368 0.630508Z" fill="#9B978A"/>
<path d="M53.7797 0.694625L12.7163 0.402654C7.63476 6.73468 5.13154 9.90633 0.404271 16.2516C10.9488 26.9688 21.7966 37.3338 32.7737 47.6245C42.997 37.0657 53.54 26.8528 64.1363 16.7048C59.8645 10.3385 57.7827 7.10199 53.7797 0.694625Z" fill="#9B978A"/>
<path d="M53.811 0.792281L12.7368 0.500234C7.65526 6.83226 5.15198 10.0147 0.435445 16.36C10.98 27.0772 21.8385 37.4423 32.8156 47.733C43.0389 37.1742 53.582 26.9506 64.2427 16.8137C59.9068 10.404 57.8248 7.18898 53.811 0.792281Z" fill="#9B978A"/>
<path d="M53.8422 0.888549L12.7681 0.596502C7.6757 6.93919 5.18322 10.1109 0.455876 16.4669C11.0112 27.1842 21.8803 37.5494 32.8682 47.8402C43.0916 37.2814 53.6238 27.0684 64.2309 16.9204C59.9487 10.5003 57.856 7.29599 53.8422 0.888549Z" fill="#9B978A"/>
<path d="M53.8847 0.995636L12.7891 0.703436C7.7075 7.0462 5.20422 10.2179 0.476872 16.5739C11.0429 27.2913 21.9121 37.6671 32.9108 47.9473C43.1341 37.3885 53.6665 27.1648 64.2734 17.0275C59.9805 10.6073 57.8985 7.40307 53.8847 0.995636Z" fill="#9B978A"/>
<path d="M53.9162 1.09329L12.8098 0.801015C7.72818 7.14378 5.2249 10.3262 0.50829 16.6823C11.0743 27.3996 21.9542 37.7756 32.9529 48.0557C43.1763 37.4862 53.7086 27.2625 64.3692 17.1363C60.0226 10.7158 57.93 7.50073 53.9162 1.09329Z" fill="#9B978A"/>
<path d="M53.9477 1.2003L12.8413 0.908025C7.74895 7.25072 5.25639 10.4332 0.529042 16.7892C11.1057 27.5174 21.9963 37.8934 33.0058 48.1629C43.2184 37.604 53.7616 27.3696 64.3684 17.2431C60.0648 10.8229 57.9721 7.60781 53.9477 1.2003Z" fill="#9B978A"/>
<path d="M53.9897 1.29803L12.8619 1.00561C7.78017 7.35911 5.2769 10.5308 0.560216 16.8976C11.1369 27.6258 22.0276 38.0018 33.0478 48.2714C43.2712 37.7018 53.8037 27.4674 64.4104 17.3516C60.1069 10.9206 58.0141 7.71629 53.9897 1.29803Z" fill="#9B978A"/>
<path d="M54.0214 1.40504L12.8828 1.11254C7.80118 7.45531 5.2979 10.6377 0.581212 17.0045C11.1686 27.7328 22.0699 38.1196 33.0902 48.3785C43.3137 37.7982 53.8462 27.5637 64.4529 17.4587C60.1493 11.0277 58.0459 7.81256 54.0214 1.40504Z" fill="#9B978A"/>
<path d="M54.053 1.50124L12.9036 1.20865C7.83265 7.56224 5.31858 10.7446 0.61263 17.1115C11.2001 27.8397 22.1121 38.2267 33.1432 48.4856C43.3558 37.9159 53.8883 27.6815 64.5058 17.5658C60.1808 11.1346 58.0881 7.91956 54.053 1.50124Z" fill="#9B978A"/>
<path d="M54.0949 1.6093L12.9348 1.31664C7.85272 7.72384 5.34982 10.8525 0.633214 17.2086C11.2313 27.9477 22.1541 38.3347 33.1852 48.5829C43.398 38.0025 53.9304 27.7681 64.5479 17.6631C60.2228 11.2427 58.13 8.02763 54.0949 1.6093Z" fill="#9B978A"/>
<path d="M54.1266 1.70647L12.9558 1.41373C7.8741 7.76724 5.37082 10.9496 0.664876 17.3166C11.3274 28.0561 22.1856 38.4533 33.2272 48.7445C43.4507 38.1642 53.9725 27.919 64.5902 17.7711C60.2652 11.34 58.1614 8.17849 54.1266 1.70647Z" fill="#9B978A"/>
<path d="M54.1584 1.81348L12.9769 1.52067C7.90552 7.92794 5.44551 11.0569 0.685872 17.4235C11.3483 28.1737 22.2281 38.5604 33.2804 48.8517C43.4932 38.2713 54.0257 28.0261 64.6434 17.8782C60.3079 11.4148 58.2043 8.23188 54.1584 1.81348Z" fill="#9B978A"/>
<path d="M54.2001 1.91072L13.0078 1.61783C7.92572 8.02503 5.42275 11.1645 0.716802 17.5314C11.3792 28.2816 22.2697 38.6791 33.322 48.9704C43.5349 38.3793 54.0674 28.1341 64.6851 17.9862C60.3494 11.555 58.2459 8.33986 54.2001 1.91072Z" fill="#9B978A"/>
<path d="M54.2314 2.01871L13.0284 1.72574C7.94629 8.13294 5.44326 11.2724 0.737309 17.6393C11.3998 28.3896 22.301 38.7872 33.364 49.0892C43.5768 38.4981 54.1094 28.2422 64.7271 18.0943C60.3914 11.6631 58.2773 8.43711 54.2314 2.01871Z" fill="#9B978A"/>
<path d="M54.2741 2.11595L13.0496 1.82284C7.97826 8.23011 5.4645 11.3695 0.769215 17.7472C11.4317 28.4975 22.3435 38.9058 33.4172 49.208C43.6301 38.6062 54.1519 28.3609 64.7805 18.2023C60.4233 11.7602 58.3199 8.54509 54.2741 2.11595Z" fill="#9B978A"/>
<path d="M54.3053 2.22345L13.0808 1.93033C7.99871 8.33753 5.49575 11.477 0.789723 17.8546C11.4522 28.6049 22.3855 39.0134 33.4592 49.3156C43.6721 38.7245 54.1939 28.4685 64.8225 18.3099C60.4653 11.8678 58.3619 8.65267 54.3053 2.22345Z" fill="#9B978A"/>
<path d="M54.3373 2.31964L13.1021 2.02645C8.03075 8.43372 5.51653 11.6375 0.821629 17.9615C11.484 28.7225 22.4281 39.1312 33.5018 49.4333C43.7147 38.8315 54.2473 28.5756 64.8651 18.4169C60.508 11.9748 58.3938 8.74886 54.3373 2.31964Z" fill="#9B978A"/>
<path d="M54.4328 2.4276L13.1224 2.13387C8.05102 8.54114 5.59095 11.6809 0.841893 18.069C11.5039 28.8837 22.4591 39.2387 33.5542 49.5517C43.7671 38.9499 54.289 28.6832 64.9176 18.5246C60.5498 12.0717 58.4356 8.85644 54.4328 2.4276Z" fill="#9B978A"/>
<path d="M54.4323 2.52551L13.1541 2.23202C8.07202 8.63921 5.62223 11.8435 0.873555 18.1779C11.5359 28.9389 22.5015 39.3477 33.5966 49.6607C43.8095 39.0589 54.3314 28.7921 64.96 18.6335C60.5922 12.1806 58.4781 8.95466 54.4323 2.52551Z" fill="#9B978A"/>
<path d="M54.4313 2.63229L13.1746 2.33895C8.10326 8.74622 5.58942 11.8963 0.894063 18.2848C11.5564 29.0458 22.5434 39.4655 33.6493 49.7786C43.8515 39.1659 54.3734 28.8992 65.0127 18.7407C60.6342 12.2877 58.5093 9.06167 54.4313 2.63229Z" fill="#9B978A"/>
<path d="M53.7058 0.490371L12.6746 0.198629C7.58236 6.51984 5.08987 9.69158 0.351781 16.0475C10.8858 26.7432 21.6798 37.1078 32.6783 47.4201C42.9123 36.8721 53.4446 26.6592 64.1053 16.5008C59.748 10.0802 57.709 6.87626 53.7058 0.490371Z" fill="url(#paint0_linear_171_4844)" stroke="url(#paint1_linear_171_4844)" stroke-width="0.155937" stroke-miterlimit="10"/>
<g style="mix-blend-mode:multiply">
<path d="M44.8402 16.3627L64.1048 16.4997C53.4444 26.6044 42.9121 36.8173 32.6777 47.419C36.2213 36.8879 40.3011 26.4465 44.8402 16.3627Z" fill="#AFAFAF"/>
</g>
<g style="mix-blend-mode:multiply">
<path d="M44.8406 16.3634L19.6162 16.1841C23.461 26.7248 27.8752 37.2158 32.6781 47.4197C36.2217 36.8886 40.3015 26.4472 44.8406 16.3634Z" fill="#D8D8D8"/>
</g>
<g style="mix-blend-mode:multiply">
<path d="M0.351562 16.0474L19.6162 16.1843C23.4609 26.725 27.8752 37.2161 32.6781 47.42C21.7225 37.1079 10.8855 26.743 0.351562 16.0474Z" fill="#ADADAD"/>
</g>
<g style="mix-blend-mode:screen" opacity="0.2">
<path d="M12.6746 0.198629C15.2925 6.57466 16.6765 9.77397 19.6164 16.1845L0.351781 16.0475C5.12208 9.69181 7.58236 6.51984 12.6746 0.198629Z" fill="#EAEAEA"/>
</g>
<g style="mix-blend-mode:screen" opacity="0.2">
<path d="M64.1054 16.5004L44.8408 16.3634C48.2262 9.94419 49.9989 6.82103 53.7059 0.489962C57.709 6.87585 59.7481 10.0798 64.1054 16.5004Z" fill="#C6C6C6"/>
</g>
<g style="mix-blend-mode:screen" opacity="0.2">
<path d="M33.1846 0.343587C27.5984 6.66129 24.8804 9.83143 19.6161 16.1836C16.6767 9.7194 15.2922 6.57379 12.6743 0.197754L33.1846 0.343587Z" fill="white"/>
</g>
<g style="mix-blend-mode:screen" opacity="0.2">
<path d="M44.8405 16.3635C40.0218 9.88586 37.6924 6.73353 33.1416 0.34375L53.6626 0.48966C49.9986 6.82103 48.2255 9.99788 44.8405 16.3635Z" fill="white"/>
</g>
<g style="mix-blend-mode:screen" opacity="0.2">
<path d="M19.6164 16.1838L44.8408 16.3631C40.0221 9.88552 37.6927 6.73319 33.1419 0.343411C27.5557 6.66111 24.8807 9.83155 19.6164 16.1838Z" fill="white"/>
</g>
<path d="M22.236 16.2034L44.7865 16.3638L23.3829 14.9981C23.2509 14.9869 23.1243 14.9405 23.0163 14.8637C22.9083 14.7869 22.8228 14.6826 22.7688 14.5616C22.7149 14.4406 22.6943 14.3073 22.7094 14.1756C22.7244 14.044 22.7745 13.9188 22.8544 13.8131C26.855 8.47206 28.9042 5.72673 33.1306 0.344386C33.1306 0.344386 24.4692 10.2377 21.622 13.4499C21.5234 13.5677 21.3981 13.6603 21.2565 13.72C21.115 13.7797 20.9612 13.8048 20.808 13.7932C20.6548 13.7817 20.5066 13.7337 20.3756 13.6534C20.2446 13.5731 20.1347 13.4627 20.055 13.3314C16.9674 8.06886 15.4826 5.438 12.6311 0.198629C14.8158 5.58361 15.9667 8.34094 18.3873 13.7813C18.4429 13.9168 18.4655 14.0635 18.4532 14.2095C18.441 14.3554 18.3942 14.4963 18.3167 14.6206C18.2393 14.7449 18.1333 14.849 18.0077 14.9242C17.8821 14.9995 17.7404 15.0439 17.5943 15.0536L0.308629 16.0046L18.392 16.1331C18.7359 16.1327 19.0718 16.236 19.3559 16.4296C19.64 16.6233 19.8591 16.8982 19.9844 17.2184C23.7352 27.3825 28.0017 37.5074 32.6572 47.3022C28.4852 37.4679 24.7129 27.3143 21.4668 17.1537C21.4398 17.0389 21.4394 16.9193 21.4656 16.8043C21.4919 16.6892 21.5442 16.5817 21.6184 16.49C21.6927 16.3982 21.787 16.3247 21.894 16.2751C22.0011 16.2254 22.118 16.2009 22.236 16.2034Z" fill="url(#paint2_linear_171_4844)"/>
<path d="M46.363 15.2147C46.2793 15.2079 46.1986 15.1803 46.1282 15.1345C46.0578 15.0886 46 15.0259 45.96 14.952C45.92 14.8781 45.899 14.7954 45.8991 14.7114C45.8991 14.6274 45.9202 14.5447 45.9602 14.4709C48.9317 8.87557 50.4873 6.07303 53.7057 0.490213C49.6938 5.9063 47.7523 8.62018 43.9443 14.0485C43.8989 14.1082 43.8402 14.1564 43.7728 14.1895C43.7055 14.2226 43.6314 14.2395 43.5564 14.239C43.4814 14.2385 43.4075 14.2205 43.3407 14.1864C43.2738 14.1524 43.2158 14.1033 43.1712 14.043C41.2457 11.4734 33.1421 0.301053 33.1421 0.301053C36.4435 5.69397 38.1529 8.45528 41.6365 13.9032C41.7067 14.0176 41.7461 14.1483 41.7505 14.2825C41.7549 14.4166 41.7242 14.5497 41.6616 14.6684C41.599 14.7872 41.5065 14.8876 41.3933 14.9598C41.2801 15.0319 41.1501 15.0734 41.0161 15.08L19.5307 16.1408L42.1457 16.3016C42.2645 16.3028 42.3812 16.3331 42.4858 16.3897C42.5903 16.4464 42.6794 16.5276 42.7454 16.6265C42.8114 16.7254 42.8522 16.8389 42.8643 16.9571C42.8765 17.0754 42.8596 17.1948 42.8151 17.3051C38.9653 27.1038 35.5108 37.206 32.5932 47.3013C36.0155 37.1988 39.9531 27.1323 44.275 17.3906C44.4208 17.0706 44.6565 16.7999 44.9533 16.6114C45.2502 16.4228 45.5954 16.3246 45.947 16.3286L64.1055 16.4577L46.363 15.2147Z" fill="url(#paint3_linear_171_4844)"/>
<defs>
<linearGradient id="paint0_linear_171_4844" x1="32.0241" y1="45.7832" x2="32.3206" y2="4.08619" gradientUnits="userSpaceOnUse">
<stop stop-color="#985E3E"/>
<stop offset="0.06" stop-color="#BC7F5E"/>
<stop offset="0.13" stop-color="#D99A77"/>
<stop offset="0.19" stop-color="#EEAD8A"/>
<stop offset="0.25" stop-color="#FBB995"/>
<stop offset="0.31" stop-color="#FFBD99"/>
<stop offset="0.35" stop-color="#EFAF8B"/>
<stop offset="0.48" stop-color="#CA8C6A"/>
<stop offset="0.59" stop-color="#AE7352"/>
<stop offset="0.69" stop-color="#9E6343"/>
<stop offset="0.76" stop-color="#985E3E"/>
<stop offset="0.91" stop-color="#FFBD99"/>
</linearGradient>
<linearGradient id="paint1_linear_171_4844" x1="0.136725" y1="23.6384" x2="64.2124" y2="24.094" gradientUnits="userSpaceOnUse">
<stop stop-color="#985E3E"/>
<stop offset="1" stop-color="#FFBD99"/>
</linearGradient>
<linearGradient id="paint2_linear_171_4844" x1="22.3801" y1="47.2935" x2="22.7198" y2="-0.481362" gradientUnits="userSpaceOnUse">
<stop offset="0.13" stop-color="white"/>
<stop offset="0.18" stop-color="white"/>
<stop offset="0.57" stop-color="white"/>
<stop offset="0.99" stop-color="white"/>
<stop offset="1" stop-color="white"/>
</linearGradient>
<linearGradient id="paint3_linear_171_4844" x1="41.6451" y1="47.4301" x2="41.9848" y2="-0.344841" gradientUnits="userSpaceOnUse">
<stop offset="0.13" stop-color="white"/>
<stop offset="0.18" stop-color="white"/>
<stop offset="0.57" stop-color="white"/>
<stop offset="0.99" stop-color="white"/>
<stop offset="1" stop-color="white"/>
</linearGradient>
</defs>
</svg>
