<svg width="76" height="66" viewBox="0 0 76 66" fill="none" xmlns="http://www.w3.org/2000/svg">
<path d="M2.90914 52.7867L3.7819 52.7867C4.1742 52.3198 4.60834 51.8897 5.07889 51.5018C3.06656 48.2088 2.3326 44.2918 3.01627 40.4937C3.69993 36.6955 5.7537 33.2803 8.788 30.8957L9.50312 30.8957C9.9907 30.5448 10.5102 30.2404 11.0547 29.9866C7.7092 17.2956 15.6001 18.4956 17.1153 16.5562C18.6305 14.6168 13.6607 7.19858 20.1941 3.68341C26.7274 0.168238 33.0305 2.20461 38.0245 6.10766C43.0306 2.21673 49.3215 0.180357 55.8549 3.6834C62.3883 7.18645 57.467 14.5925 58.9458 16.5562C60.4246 18.5198 68.3156 17.2956 65.0064 29.9866C65.5456 30.2433 66.0607 30.5475 66.5458 30.8957L67.2731 30.8957C70.3074 33.2803 72.3611 36.6955 73.0448 40.4937C73.7284 44.2918 72.9946 48.2088 70.9822 51.5018C71.4499 51.8929 71.8838 52.3227 72.2792 52.7867L73.1398 52.7867C77.4549 57.9746 74.3581 66.0003 74.3581 66.0003L1.92454 66.0003C1.92454 66.0003 -1.40603 57.9988 2.90914 52.7867Z" fill="#9B978A"/>
<path d="M6.04876 49.647C0.448742 40.5803 5.56394 30.3742 11.7579 28.0226C8.38819 15.4771 16.1579 16.665 17.6004 14.762C19.0428 12.859 14.2306 5.64679 20.6064 2.21647C26.9822 -1.21385 33.1155 0.761921 37.9883 4.568C42.8368 0.76192 49.0066 -1.21385 55.3823 2.21647C61.7581 5.64679 56.946 12.859 58.3884 14.762C59.8308 16.665 67.5884 15.4771 64.2187 28.0226C70.4127 30.3742 75.5279 40.5803 69.94 49.647C77.2855 54.7137 73.5764 63.4046 73.5764 63.4046L2.46084 63.4046C2.46084 63.4046 -1.29673 54.7137 6.04876 49.647Z" fill="url(#paint0_linear_295_478)" stroke="url(#paint1_linear_295_478)" stroke-width="0.150317" stroke-miterlimit="10"/>
<path d="M33.9397 14.1438C33.6474 13.2028 33.1608 12.3335 32.5115 11.5923C31.8621 10.8511 31.0645 10.2544 30.17 9.8408C29.8242 9.67864 29.4424 9.60802 29.0615 9.63572C28.6805 9.66342 28.313 9.78851 27.9942 9.99899C27.6754 10.2095 27.4161 10.4983 27.241 10.8378C27.0659 11.1772 26.981 11.556 26.9943 11.9378C26.999 12.2356 27.085 12.5265 27.2429 12.779C27.4008 13.0316 27.6247 13.2362 27.8903 13.3709C28.156 13.5056 28.4534 13.5652 28.7504 13.5434C29.0475 13.5215 29.3329 13.419 29.576 13.2469C29.8562 12.9919 30.0431 12.6505 30.1068 12.2771C30.1705 11.9037 30.1074 11.5197 29.9276 11.1863C30.1148 11.3309 30.269 11.5138 30.3798 11.7229C30.4906 11.9319 30.5554 12.1622 30.57 12.3984C30.5949 12.7949 30.5168 13.1911 30.3433 13.5486C30.1698 13.906 29.9068 14.2124 29.5798 14.4382C29.2528 14.6639 28.873 14.8011 28.4773 14.8367C28.0816 14.8722 27.6834 14.8047 27.3215 14.6408C26.9324 14.491 26.577 14.2653 26.2761 13.9767C25.9752 13.6881 25.7348 13.3424 25.5689 12.9599C25.403 12.5774 25.315 12.1657 25.31 11.7487C25.3049 11.3318 25.3831 10.9181 25.5397 10.5317C25.7064 10.0178 25.9855 9.54758 26.3567 9.15511C26.728 8.76264 27.182 8.45781 27.6858 8.26279C28.1896 8.06777 28.7305 7.98745 29.2693 8.02767C29.808 8.0679 30.331 8.22766 30.8003 8.49533C31.7974 9.05135 32.6197 9.87467 33.1743 10.8726C33.7289 11.8705 33.994 13.0034 33.9397 14.1438Z" fill="#F5F5FD"/>
<path d="M27.9151 49.6471C26.703 41.5743 25.3454 38.8592 20.4969 37.6592C25.1394 36.6289 29.2 40.8834 27.9151 49.6471Z" fill="#F5F5FD"/>
<path d="M31.709 12.98C31.7746 13.8402 32.078 14.6652 32.5853 15.3629C33.0926 16.0607 33.7837 16.6038 34.5817 16.9315C34.8113 17.1139 35.0008 17.3417 35.1384 17.6006C35.2761 17.8595 35.3588 18.144 35.3815 18.4363C35.4043 18.7286 35.3665 19.0225 35.2707 19.2996C35.1748 19.5766 35.0227 19.831 34.8242 20.0467C36.8727 19.8891 36.8606 16.6164 34.9939 16.2042C33.8908 15.9618 32.6544 15.3073 31.709 12.98Z" fill="#F5F5FD"/>
<path d="M41.9276 14.1439C42.2206 13.2013 42.7088 12.331 43.3604 11.5896C44.012 10.8483 44.8123 10.2524 45.7095 9.8408C46.0556 9.6822 46.4364 9.61434 46.816 9.64361C47.1956 9.67289 47.5615 9.79834 47.8792 10.0081C48.1969 10.2179 48.456 10.5051 48.632 10.8427C48.808 11.1803 48.8952 11.5572 48.8853 11.9378C48.8779 12.2358 48.7898 12.5263 48.6304 12.7782C48.4709 13.0302 48.2461 13.2342 47.98 13.3685C47.7138 13.5028 47.4162 13.5625 47.1188 13.541C46.8215 13.5196 46.5355 13.418 46.2913 13.2469C46.0131 12.9904 45.8286 12.6483 45.7671 12.2749C45.7056 11.9016 45.7706 11.5184 45.9519 11.1863C45.7606 11.328 45.6029 11.51 45.4898 11.7195C45.3767 11.9289 45.311 12.1607 45.2974 12.3984C45.2725 12.7949 45.3506 13.1911 45.5241 13.5486C45.6976 13.906 45.9606 14.2124 46.2876 14.4382C46.6145 14.6639 46.9943 14.8011 47.39 14.8367C47.7858 14.8722 48.1839 14.8047 48.5459 14.6408C48.9361 14.4922 49.2927 14.2673 49.5949 13.9792C49.8971 13.6911 50.1388 13.3457 50.3058 12.963C50.4729 12.5804 50.562 12.1683 50.5678 11.7508C50.5736 11.3333 50.4961 10.9189 50.3398 10.5317C50.1735 10.0161 49.8941 9.54421 49.522 9.15047C49.1499 8.75672 48.6945 8.45109 48.1891 8.25591C47.6838 8.06073 47.1412 7.98094 46.601 8.02236C46.0609 8.06379 45.5368 8.22538 45.0671 8.49533C44.0718 9.0535 43.2512 9.87723 42.6968 10.8746C42.1425 11.8721 41.8761 13.0039 41.9276 14.1439Z" fill="#F5F5FD"/>
<path d="M47.9517 49.6471C49.1639 41.5743 50.5215 38.8592 55.3821 37.6592C50.7518 36.6289 46.6669 40.8834 47.9517 49.6471Z" fill="#F5F5FD"/>
<path d="M44.1577 12.98C44.0973 13.84 43.7973 14.6659 43.2918 15.3643C42.7862 16.0626 42.0952 16.6055 41.2971 16.9315C41.0676 17.1139 40.878 17.3417 40.7404 17.6006C40.6028 17.8595 40.52 18.144 40.4973 18.4363C40.4745 18.7286 40.5123 19.0225 40.6082 19.2996C40.7041 19.5766 40.8561 19.831 41.0547 20.0467C39.0062 19.8891 39.0062 16.6164 40.885 16.2042C41.9759 15.9618 43.2123 15.3073 44.1577 12.98Z" fill="#F5F5FD"/>
<path d="M31.3455 6.76181C30.1977 6.14517 28.8568 5.9933 27.6001 6.33758C26.3494 6.68863 25.2446 7.43225 24.4485 8.4588C23.6937 9.45203 23.3507 10.698 23.491 11.9376C23.5248 12.2475 23.594 12.5525 23.697 12.8467C23.7819 13.1982 23.9152 13.2709 24.1334 14.1194C24.2479 14.8141 24.1011 15.5266 23.7213 16.1194C23.4389 16.5466 23.0959 16.9304 22.7031 17.2588C21.4009 18.2296 20.0408 19.1201 18.6303 19.9255C17.3616 20.609 16.3049 21.6279 15.5757 22.871C15.3309 23.57 15.2495 24.3159 15.3377 25.0513C15.426 25.7867 15.6816 26.4921 16.0849 27.1134C15.5034 26.5389 15.0347 25.8605 14.7031 25.1134C14.3502 24.2912 14.2736 23.3768 14.4849 22.5073C14.701 21.6437 15.1161 20.8426 15.697 20.1679C16.2363 19.5214 16.8371 18.9287 17.4909 18.3982C18.7031 17.3558 20.1212 16.4588 21.1273 15.5255C21.3292 15.339 21.501 15.1223 21.6364 14.8831C21.7212 14.6891 21.6364 14.6528 21.6364 14.6164C21.6364 14.58 21.3818 14.0709 21.2485 13.6709C21.0872 13.2235 20.9735 12.7603 20.9091 12.2891C20.7615 11.3345 20.8146 10.3596 21.065 9.42662C21.3155 8.49367 21.7578 7.62324 22.3637 6.87092C23.5236 5.37917 25.1789 4.35157 27.0304 3.97391C27.9549 3.79255 28.9058 3.79255 29.8304 3.97391C30.7448 4.15554 31.6065 4.54084 32.3516 5.1012C33.0183 5.59817 33.5637 6.21636 34.1213 6.68908C34.7214 7.18474 35.3666 7.62303 36.0486 7.99818C35.2005 8.09585 34.3413 8.01324 33.5273 7.75576C32.7152 7.42849 32.0243 7.08908 31.3455 6.76181Z" fill="#F5F5FD"/>
<path d="M17.0544 54.9564C16.5912 54.3232 16.1855 53.6498 15.8423 52.9443C15.5029 52.2655 15.1514 51.5989 14.8726 50.8837C14.2607 49.4763 13.8093 48.0043 13.5271 46.4958C13.2487 44.9688 13.1268 43.4173 13.1635 41.8655C13.2603 40.3103 13.5245 38.7701 13.9514 37.2715C14.8578 34.329 16.3689 31.6083 18.3877 29.2836C20.3588 27.0092 22.6885 25.0725 25.2847 23.5502C27.9071 22.1446 30.8005 21.3179 33.7696 21.126C31.0434 21.9249 28.4617 23.1523 26.1211 24.7624C23.8776 26.4643 21.879 28.467 20.1816 30.7139C18.5048 32.887 17.247 35.3533 16.4725 37.9867C15.7724 40.6116 15.6443 43.3564 16.0968 46.0352C16.3455 47.3829 16.7022 48.7084 17.1635 49.9988C17.3816 50.6534 17.6847 51.2837 17.9514 51.9261C18.2188 52.5411 18.5434 53.1296 18.9211 53.6837C20.3791 55.9356 22.65 57.5379 25.2605 58.1565C26.5709 58.4906 27.9348 58.5606 29.2726 58.3625C30.5744 58.2372 31.7815 57.6272 32.6545 56.6534C32.9793 56.1005 33.1115 55.4554 33.0304 54.8193C32.9492 54.1831 32.6593 53.5919 32.206 53.1382C31.2918 52.0257 30.2077 51.0644 28.9938 50.2898C30.3354 50.8845 31.5653 51.7044 32.6302 52.714C33.1867 53.2707 33.6023 53.9522 33.8423 54.7019C33.9528 55.1073 33.9808 55.5308 33.9245 55.9472C33.8683 56.3636 33.7291 56.7645 33.515 57.1261C32.5787 58.4672 31.1491 59.3825 29.5393 59.6716C28.0161 60.0269 26.4365 60.0681 24.8968 59.7928C21.7554 59.2562 18.9443 57.5226 17.0544 54.9564Z" fill="#F5F5FD"/>
<path d="M4.53337 57.3806C4.70689 56.5899 4.95863 55.8184 5.28489 55.0775C5.6028 54.3451 5.9798 53.6397 6.41216 52.9685C6.85049 52.28 7.3582 51.6383 7.92731 51.0533C8.25954 50.709 8.61601 50.389 8.99399 50.0957C8.31402 48.1458 7.94982 46.0999 7.91518 44.0351C7.85984 41.6392 8.27155 39.2554 9.12731 37.0169C10.0004 34.8254 11.2794 32.8186 12.8971 31.1017C14.465 29.4069 16.3623 28.0499 18.4728 27.1138C16.7589 28.509 15.2528 30.1416 14.0001 31.9623C12.7773 33.7276 11.8405 35.6748 11.2243 37.732C10.619 39.7426 10.3527 41.84 10.4364 43.9381C10.5243 46.0325 10.9331 48.1011 11.6486 50.0715L11.988 51.0533L11.1273 51.6351C10.5835 51.983 10.0795 52.3894 9.62432 52.8472C9.14112 53.2966 8.70268 53.7919 8.3152 54.326C7.91332 54.8697 7.55656 55.4454 7.24853 56.0473C7.13944 56.2655 7.03032 56.5079 6.92123 56.7503C8.69093 56.9442 10.4486 57.1624 12.2183 57.4048C14.4486 57.7321 16.691 58.0473 18.9092 58.4958C16.6546 58.6412 14.388 58.6776 12.1334 58.7139C9.87888 58.7503 7.6243 58.7139 5.36975 58.7139L4.15762 58.7139L4.53337 57.3806Z" fill="#F5F5FD"/>
<path d="M43.491 5.08921C44.2361 4.52885 45.0978 4.14354 46.0122 3.96192C46.9406 3.77897 47.8959 3.77897 48.8243 3.96192C50.6734 4.34558 52.3269 5.37196 53.4911 6.8589C54.0944 7.61272 54.5351 8.48328 54.7854 9.41577C55.0357 10.3483 55.0903 11.3225 54.9456 12.2771C54.8715 12.7476 54.7538 13.2102 54.5941 13.6589C54.4607 14.0589 54.1698 14.6771 54.2062 14.6044C54.2425 14.5317 54.2062 14.6771 54.2062 14.8711C54.3466 15.1103 54.5223 15.3268 54.7274 15.5135C55.7092 16.4468 57.0789 17.3438 58.3638 18.3862C59.0205 18.9135 59.6216 19.5065 60.1578 20.1559C60.7336 20.834 61.1481 21.6339 61.3699 22.4954C61.5713 23.3665 61.4906 24.2791 61.1396 25.1014C60.8123 25.851 60.3431 26.5302 59.7577 27.1014C60.1669 26.4806 60.4278 25.774 60.5203 25.0363C60.6128 24.2986 60.5344 23.5494 60.2911 22.8469C59.5606 21.6006 58.4991 20.5811 57.2244 19.9014C55.8162 19.0986 54.46 18.2079 53.1638 17.2347C52.767 16.9067 52.42 16.5229 52.1335 16.0953C51.7579 15.5009 51.6154 14.7885 51.7335 14.0953C51.8489 13.6614 51.9947 13.2361 52.1698 12.8226C52.4161 12.0852 52.4753 11.2981 52.342 10.5322C52.2087 9.7663 51.8871 9.04551 51.4062 8.43467C50.6133 7.41026 49.5131 6.66684 48.2668 6.31345C47.0102 5.96791 45.6688 6.11985 44.5213 6.7377C43.8304 7.05286 43.1395 7.40437 42.3031 7.71952C41.4891 7.977 40.63 8.05961 39.7819 7.96195C40.4674 7.59265 41.1132 7.15399 41.7092 6.65285C42.2667 6.20436 42.8244 5.58618 43.491 5.08921Z" fill="#F5F5FD"/>
<path d="M43.2608 52.7623C44.3216 51.7475 45.5525 50.927 46.8972 50.3381C45.6784 51.1061 44.5933 52.0683 43.685 53.1866C43.2298 53.6388 42.9377 54.2293 42.8543 54.8655C42.7709 55.5017 42.9011 56.1476 43.2244 56.7018C44.0996 57.6727 45.3055 58.2822 46.6063 58.4109C47.9441 58.6096 49.3081 58.5396 50.6184 58.2048C53.2307 57.5833 55.5045 55.9821 56.97 53.7321C57.3391 53.1748 57.6595 52.5868 57.9275 51.9745C58.2063 51.332 58.4973 50.7017 58.7154 50.0472C59.1806 48.757 59.5414 47.4315 59.7943 46.0835C60.2424 43.4039 60.1102 40.6592 59.4064 38.035C58.6499 35.4085 57.4173 32.9433 55.77 30.7622C54.0683 28.515 52.0656 26.5124 49.8184 24.8107C47.5354 23.1999 45.0053 21.9717 42.3275 21.1743C45.2344 21.3704 48.0638 22.1976 50.6184 23.5986C53.2168 25.1178 55.547 27.0549 57.5154 29.3319C59.5388 31.6535 61.0503 34.3752 61.9518 37.3199C62.3845 38.8171 62.6488 40.358 62.7397 41.9138C62.7804 43.4652 62.6626 45.0167 62.3881 46.5441C61.9171 48.7917 61.1338 50.9623 60.0609 52.9926C59.7177 53.6982 59.312 54.3716 58.8488 55.0048C56.9771 57.6002 54.1687 59.3652 51.0184 59.926C49.4787 60.201 47.8992 60.1597 46.376 59.8048C44.7672 59.5132 43.3384 58.5984 42.4002 57.2594C41.9743 56.5265 41.8566 55.6546 42.0729 54.8351C42.2898 54.0559 42.6982 53.3434 43.2608 52.7623Z" fill="#F5F5FD"/>
<path d="M68.776 56.7869C68.6669 56.5445 68.5578 56.3021 68.4366 56.0839C68.133 55.4795 67.7761 54.9035 67.37 54.3627C66.9825 53.8285 66.5441 53.3333 66.0609 52.8839C65.6057 52.4261 65.1017 52.0196 64.5578 51.6717L63.6972 51.0899L64.0487 50.1081C64.7587 48.1362 65.1673 46.0685 65.2608 43.9747C65.3565 41.8761 65.09 39.7767 64.473 37.7686C63.8559 35.714 62.9235 33.7675 61.7093 31.9989C60.4486 30.1808 58.9389 28.5487 57.2244 27.1504C59.3366 28.0836 61.2346 29.441 62.8002 31.1383C64.4179 32.8552 65.6969 34.8621 66.5699 37.0535C67.4254 39.2921 67.8371 41.6758 67.7821 44.0717C67.7435 46.1371 67.3753 48.1831 66.6912 50.1323C67.073 50.4255 67.4335 50.7455 67.7699 51.0899C68.3316 51.6782 68.835 52.3197 69.2729 53.0051C69.7053 53.6764 70.0824 54.3817 70.4003 55.1142C70.7306 55.8546 70.9864 56.6261 71.1639 57.4172L71.4548 58.6293L70.2427 58.6293C67.9882 58.6293 65.7336 58.6899 63.479 58.6293C61.2245 58.5687 58.9699 58.5566 56.7032 58.4112C58.9214 57.9627 61.1638 57.6475 63.3942 57.3203C65.2528 57.1425 67.0467 56.9647 68.776 56.7869Z" fill="#F5F5FD"/>
<defs>
<linearGradient id="paint0_linear_295_478" x1="37.9156" y1="62.8228" x2="39.0429" y2="-5.38356" gradientUnits="userSpaceOnUse">
<stop stop-color="#985E3E"/>
<stop offset="0.06" stop-color="#BC7F5E"/>
<stop offset="0.13" stop-color="#D99A77"/>
<stop offset="0.19" stop-color="#EEAD8A"/>
<stop offset="0.25" stop-color="#FBB995"/>
<stop offset="0.31" stop-color="#FFBD99"/>
<stop offset="0.34" stop-color="#EFAF8B"/>
<stop offset="0.42" stop-color="#CA8C6A"/>
<stop offset="0.49" stop-color="#AE7352"/>
<stop offset="0.55" stop-color="#9E6343"/>
<stop offset="0.6" stop-color="#985E3E"/>
<stop offset="0.74" stop-color="#FFBD99"/>
</linearGradient>
<linearGradient id="paint1_linear_295_478" x1="74.6309" y1="31.9257" x2="1.35782" y2="31.9257" gradientUnits="userSpaceOnUse">
<stop stop-color="#985E3E"/>
<stop offset="1" stop-color="#FFBD99"/>
</linearGradient>
</defs>
</svg>
