<svg width="774" height="84" viewBox="50 140 824 1" fill="none" xmlns="http://www.w3.org/2000/svg">
<g filter="url(#filter0_d_431_56)">
<path d="M745.797 149.375C745.796 156.658 747.954 163.778 751.999 169.834C756.044 175.891 761.794 180.611 768.522 183.4C775.25 186.188 782.654 186.918 789.797 185.499C796.94 184.079 803.502 180.573 808.653 175.423C813.803 170.274 817.311 163.713 818.732 156.57C820.154 149.427 819.425 142.023 816.638 135.294C813.852 128.566 809.132 122.814 803.077 118.768C797.021 114.722 789.902 112.562 782.619 112.562C777.784 112.561 772.996 113.512 768.529 115.362C764.061 117.211 760.002 119.923 756.583 123.341C753.163 126.76 750.451 130.818 748.6 135.285C746.75 139.752 745.797 144.54 745.797 149.375V149.375Z" fill="url(#paint0_radial_431_56)"/>
<path d="M745.797 149.375C745.796 156.658 747.954 163.778 751.999 169.834C756.044 175.891 761.794 180.611 768.522 183.4C775.25 186.188 782.654 186.918 789.797 185.499C796.94 184.079 803.502 180.573 808.653 175.423C813.803 170.274 817.311 163.713 818.732 156.57C820.154 149.427 819.425 142.023 816.638 135.294C813.852 128.566 809.132 122.814 803.077 118.768C797.021 114.722 789.902 112.562 782.619 112.562C777.784 112.561 772.996 113.512 768.529 115.362C764.061 117.211 760.002 119.923 756.583 123.341C753.163 126.76 750.451 130.818 748.6 135.285C746.75 139.752 745.797 144.54 745.797 149.375V149.375Z" fill="url(#paint1_radial_431_56)" style="mix-blend-mode:overlay"/>
<path d="M745.797 149.375C745.796 156.658 747.954 163.778 751.999 169.834C756.044 175.891 761.794 180.611 768.522 183.4C775.25 186.188 782.654 186.918 789.797 185.499C796.94 184.079 803.502 180.573 808.653 175.423C813.803 170.274 817.311 163.713 818.732 156.57C820.154 149.427 819.425 142.023 816.638 135.294C813.852 128.566 809.132 122.814 803.077 118.768C797.021 114.722 789.902 112.562 782.619 112.562C777.784 112.561 772.996 113.512 768.529 115.362C764.061 117.211 760.002 119.923 756.583 123.341C753.163 126.76 750.451 130.818 748.6 135.285C746.75 139.752 745.797 144.54 745.797 149.375V149.375Z" fill="url(#paint2_radial_431_56)" style="mix-blend-mode:overlay"/>
<path d="M174.627 148.917C174.629 156.282 172.447 163.481 168.357 169.605C164.266 175.729 158.452 180.503 151.649 183.322C144.845 186.142 137.359 186.88 130.136 185.445C122.913 184.009 116.278 180.464 111.07 175.257C105.861 170.05 102.315 163.416 100.877 156.193C99.4398 148.97 100.177 141.483 102.995 134.679C105.812 127.875 110.585 122.06 116.708 117.968C122.831 113.877 130.03 111.693 137.394 111.693C142.283 111.692 147.125 112.654 151.642 114.524C156.159 116.394 160.264 119.136 163.722 122.593C167.179 126.049 169.922 130.153 171.793 134.67C173.664 139.187 174.627 144.028 174.627 148.917V148.917Z" fill="url(#paint3_radial_431_56)"/>
<path d="M174.627 148.917C174.629 156.282 172.447 163.481 168.357 169.605C164.266 175.729 158.452 180.503 151.649 183.322C144.845 186.142 137.359 186.88 130.136 185.445C122.913 184.009 116.278 180.464 111.07 175.257C105.861 170.05 102.315 163.416 100.877 156.193C99.4398 148.97 100.177 141.483 102.995 134.679C105.812 127.875 110.585 122.06 116.708 117.968C122.831 113.877 130.03 111.693 137.394 111.693C142.283 111.692 147.125 112.654 151.642 114.524C156.159 116.394 160.264 119.136 163.722 122.593C167.179 126.049 169.922 130.153 171.793 134.67C173.664 139.187 174.627 144.028 174.627 148.917V148.917Z" fill="url(#paint4_radial_431_56)" style="mix-blend-mode:overlay"/>
<path d="M174.627 148.917C174.629 156.282 172.447 163.481 168.357 169.605C164.266 175.729 158.452 180.503 151.649 183.322C144.845 186.142 137.359 186.88 130.136 185.445C122.913 184.009 116.278 180.464 111.07 175.257C105.861 170.05 102.315 163.416 100.877 156.193C99.4398 148.97 100.177 141.483 102.995 134.679C105.812 127.875 110.585 122.06 116.708 117.968C122.831 113.877 130.03 111.693 137.394 111.693C142.283 111.692 147.125 112.654 151.642 114.524C156.159 116.394 160.264 119.136 163.722 122.593C167.179 126.049 169.922 130.153 171.793 134.67C173.664 139.187 174.627 144.028 174.627 148.917V148.917Z" fill="url(#paint5_radial_431_56)" style="mix-blend-mode:overlay"/>
<path d="M785.305 186.321H135.397C125.59 160.577 125.59 137.732 135.397 112H785.305C795.094 137.732 795.094 160.602 785.305 186.321Z" fill="url(#paint6_linear_431_56)"/>
<path d="M161.587 111.809H158.607C158.607 111.809 154.657 123.52 155.627 146.831C156.597 170.143 158.513 186.275 158.513 186.275H161.494C161.494 186.275 159.641 173.256 158.607 146.831C157.573 120.407 161.587 111.809 161.587 111.809Z" fill="url(#paint7_linear_431_56)"/>
<path d="M758.972 112H761.952C761.952 112 765.902 123.711 764.932 147.022C763.962 170.334 761.952 186.466 761.952 186.466H758.972C758.972 186.466 760.917 173.447 761.952 147.022C762.986 120.598 758.972 112 758.972 112Z" fill="url(#paint8_linear_431_56)"/>
<g style="mix-blend-mode:screen" opacity="0.6">
<path style="mix-blend-mode:screen" d="M804.832 132.345C804.752 154.405 805.751 172.287 807.034 172.287C808.317 172.287 809.43 154.439 809.532 132.356C809.634 110.274 808.612 92.4146 807.261 92.4146C805.91 92.4146 804.9 110.285 804.832 132.345Z" fill="url(#paint9_radial_431_56)"/>
<g style="mix-blend-mode:screen" filter="url(#filter1_f_431_56)">
<path d="M807.148 138.01C844.955 138.124 875.621 135.74 875.621 132.572C875.621 129.404 844.967 126.816 807.182 126.702C769.397 126.589 738.72 128.973 738.709 132.129C738.697 135.285 769.341 137.885 807.148 138.01Z" fill="url(#paint10_radial_431_56)" style="mix-blend-mode:screen"/>
</g>
<g style="mix-blend-mode:screen" filter="url(#filter2_f_431_56)">
<path d="M805.502 134.003C821.056 149.648 834.397 161.592 835.316 160.683C836.236 159.775 824.371 146.355 808.828 130.699C793.285 115.042 779.934 103.11 779.014 104.018C778.094 104.926 789.959 118.357 805.502 134.003Z" fill="url(#paint11_radial_431_56)" style="mix-blend-mode:screen"/>
</g>
<path style="mix-blend-mode:screen" d="M808.817 134.003C824.462 118.448 836.406 105.108 835.498 104.188C834.59 103.269 821.17 115.133 805.513 130.676C789.857 146.219 777.924 159.571 778.832 160.49C779.741 161.41 793.172 149.557 808.817 134.003Z" fill="url(#paint12_radial_431_56)"/>
<g style="mix-blend-mode:screen" filter="url(#filter3_f_431_56)">
<path d="M777.717 137.886C774.679 121.569 785.443 105.878 801.76 102.839C818.077 99.7997 833.768 110.564 836.807 126.881C839.846 143.198 829.082 158.889 812.765 161.928C796.448 164.967 780.756 154.203 777.717 137.886Z" fill="url(#paint13_radial_431_56)" style="mix-blend-mode:screen"/>
</g>
</g>
</g>
<defs>
<filter id="filter0_d_431_56" x="-23" y="0.414551" width="998.621" height="294.052" filterUnits="userSpaceOnUse" color-interpolation-filters="sRGB">
<feFlood flood-opacity="0" result="BackgroundImageFix"/>
<feColorMatrix in="SourceAlpha" type="matrix" values="0 0 0 0 0 0 0 0 0 0 0 0 0 0 0 0 0 0 127 0" result="hardAlpha"/>
<feOffset dy="8"/>
<feGaussianBlur stdDeviation="50"/>
<feComposite in2="hardAlpha" operator="out"/>
<feColorMatrix type="matrix" values="0 0 0 0 0 0 0 0 0 0 0 0 0 0 0 0 0 0 1 0"/>
<feBlend mode="normal" in2="BackgroundImageFix" result="effect1_dropShadow_431_56"/>
<feBlend mode="normal" in="SourceGraphic" in2="effect1_dropShadow_431_56" result="shape"/>
</filter>
<filter id="filter1_f_431_56" x="733.589" y="121.578" width="147.152" height="21.5556" filterUnits="userSpaceOnUse" color-interpolation-filters="sRGB">
<feFlood flood-opacity="0" result="BackgroundImageFix"/>
<feBlend mode="normal" in="SourceGraphic" in2="BackgroundImageFix" result="shape"/>
<feGaussianBlur stdDeviation="2.55993" result="effect1_foregroundBlur_431_56"/>
</filter>
<filter id="filter2_f_431_56" x="773.844" y="98.8494" width="66.6421" height="67.0024" filterUnits="userSpaceOnUse" color-interpolation-filters="sRGB">
<feFlood flood-opacity="0" result="BackgroundImageFix"/>
<feBlend mode="normal" in="SourceGraphic" in2="BackgroundImageFix" result="shape"/>
<feGaussianBlur stdDeviation="2.55993" result="effect1_foregroundBlur_431_56"/>
</filter>
<filter id="filter3_f_431_56" x="772.084" y="97.2053" width="70.3559" height="70.3559" filterUnits="userSpaceOnUse" color-interpolation-filters="sRGB">
<feFlood flood-opacity="0" result="BackgroundImageFix"/>
<feBlend mode="normal" in="SourceGraphic" in2="BackgroundImageFix" result="shape"/>
<feGaussianBlur stdDeviation="2.55993" result="effect1_foregroundBlur_431_56"/>
</filter>
<radialGradient id="paint0_radial_431_56" cx="0" cy="0" r="1" gradientUnits="userSpaceOnUse" gradientTransform="translate(795.525 176.096) rotate(-65.4401) scale(73.6247 73.6247)">
<stop offset="0.254752" stop-color="#985E3E"/>
<stop offset="0.482341" stop-color="#FFA573"/>
<stop offset="0.688171" stop-color="#EECCB9"/>
<stop offset="0.805005" stop-color="#D9A382"/>
</radialGradient>
<radialGradient id="paint1_radial_431_56" cx="0" cy="0" r="1" gradientUnits="userSpaceOnUse" gradientTransform="translate(806.134 134.321) rotate(43.2902) scale(16.3423 16.3423)">
<stop stop-color="white"/>
<stop offset="1" stop-color="white" stop-opacity="0"/>
</radialGradient>
<radialGradient id="paint2_radial_431_56" cx="0" cy="0" r="1" gradientUnits="userSpaceOnUse" gradientTransform="translate(800.803 157.443) rotate(-23.5747) scale(15.9235 15.9236)">
<stop offset="0.0783153" stop-color="white"/>
<stop offset="1" stop-color="white" stop-opacity="0"/>
</radialGradient>
<radialGradient id="paint3_radial_431_56" cx="0" cy="0" r="1" gradientUnits="userSpaceOnUse" gradientTransform="translate(124.344 175.938) rotate(-114.56) scale(74.4479 74.4478)">
<stop offset="0.254752" stop-color="#985E3E"/>
<stop offset="0.482341" stop-color="#FFA573"/>
<stop offset="0.688171" stop-color="#EECCB9"/>
<stop offset="0.805005" stop-color="#D9A382"/>
</radialGradient>
<radialGradient id="paint4_radial_431_56" cx="0" cy="0" r="1" gradientUnits="userSpaceOnUse" gradientTransform="translate(113.616 133.695) rotate(136.71) scale(16.525 16.525)">
<stop stop-color="white"/>
<stop offset="1" stop-color="white" stop-opacity="0"/>
</radialGradient>
<radialGradient id="paint5_radial_431_56" cx="0" cy="0" r="1" gradientUnits="userSpaceOnUse" gradientTransform="translate(119.007 157.076) rotate(-156.425) scale(16.1016 16.1016)">
<stop offset="0.0783153" stop-color="white"/>
<stop offset="1" stop-color="white" stop-opacity="0"/>
</radialGradient>
<linearGradient id="paint6_linear_431_56" x1="460.351" y1="186.321" x2="460.351" y2="112" gradientUnits="userSpaceOnUse">
<stop offset="0.0778446" stop-color="#310402"/>
<stop offset="0.263483" stop-color="#760000"/>
<stop offset="0.81425" stop-color="#A60000"/>
<stop offset="1" stop-color="#5F0000"/>
</linearGradient>
<linearGradient id="paint7_linear_431_56" x1="160.097" y1="111.514" x2="160.097" y2="183.028" gradientUnits="userSpaceOnUse">
<stop stop-color="#FFA573"/>
<stop offset="0.22" stop-color="#D9A382"/>
<stop offset="0.66" stop-color="#985E3E"/>
<stop offset="1" stop-color="#FFA573"/>
</linearGradient>
<linearGradient id="paint8_linear_431_56" x1="760.462" y1="111.705" x2="760.462" y2="183.218" gradientUnits="userSpaceOnUse">
<stop stop-color="#FFA573"/>
<stop offset="0.22" stop-color="#D9A382"/>
<stop offset="0.66" stop-color="#985E3E"/>
<stop offset="1" stop-color="#FFA573"/>
</linearGradient>
<radialGradient id="paint9_radial_431_56" cx="0" cy="0" r="1" gradientUnits="userSpaceOnUse" gradientTransform="translate(804.336 134.883) rotate(180) scale(1.78024 38.434)">
<stop offset="0.09" stop-color="#B6B474"/>
<stop offset="0.37" stop-color="#AC8D6B"/>
<stop offset="0.45" stop-color="#A58567" stop-opacity="0.91"/>
<stop offset="0.62" stop-color="#93715C" stop-opacity="0.67"/>
<stop offset="0.84" stop-color="#75514A" stop-opacity="0.29"/>
<stop offset="1" stop-color="#5F383D" stop-opacity="0"/>
</radialGradient>
<radialGradient id="paint10_radial_431_56" cx="0" cy="0" r="1" gradientUnits="userSpaceOnUse" gradientTransform="translate(812.377 130.632) rotate(90) scale(4.29163 65.9005)">
<stop offset="0.09" stop-color="#B6B474"/>
<stop offset="0.37" stop-color="#AC8D6B"/>
<stop offset="0.45" stop-color="#A58567" stop-opacity="0.91"/>
<stop offset="0.62" stop-color="#93715C" stop-opacity="0.67"/>
<stop offset="0.84" stop-color="#75514A" stop-opacity="0.29"/>
<stop offset="1" stop-color="#5F383D" stop-opacity="0"/>
</radialGradient>
<radialGradient id="paint11_radial_431_56" cx="0" cy="0" r="1" gradientUnits="userSpaceOnUse" gradientTransform="translate(804.021 128.073) rotate(135.725) scale(1.77597 38.4375)">
<stop offset="0.09" stop-color="#B6B474"/>
<stop offset="0.37" stop-color="#AC8D6B"/>
<stop offset="0.45" stop-color="#A58567" stop-opacity="0.91"/>
<stop offset="0.62" stop-color="#93715C" stop-opacity="0.67"/>
<stop offset="0.84" stop-color="#75514A" stop-opacity="0.29"/>
<stop offset="1" stop-color="#5F383D" stop-opacity="0"/>
</radialGradient>
<radialGradient id="paint12_radial_431_56" cx="0" cy="0" r="1" gradientUnits="userSpaceOnUse" gradientTransform="translate(807.276 126.015) rotate(45.7252) scale(1.77597 38.4375)">
<stop offset="0.09" stop-color="#B6B474"/>
<stop offset="0.37" stop-color="#AC8D6B"/>
<stop offset="0.45" stop-color="#A58567" stop-opacity="0.91"/>
<stop offset="0.62" stop-color="#93715C" stop-opacity="0.67"/>
<stop offset="0.84" stop-color="#75514A" stop-opacity="0.29"/>
<stop offset="1" stop-color="#5F383D" stop-opacity="0"/>
</radialGradient>
<radialGradient id="paint13_radial_431_56" cx="0" cy="0" r="1" gradientUnits="userSpaceOnUse" gradientTransform="translate(807.257 132.758) rotate(176.57) scale(28.9061)">
<stop offset="0.09" stop-color="#E2EBB0"/>
<stop offset="0.32" stop-color="#E1C492"/>
<stop offset="0.4" stop-color="#DBBA8B" stop-opacity="0.93"/>
<stop offset="0.54" stop-color="#CBA079" stop-opacity="0.75"/>
<stop offset="0.73" stop-color="#B0755B" stop-opacity="0.45"/>
<stop offset="0.97" stop-color="#8D3B33" stop-opacity="0.05"/>
<stop offset="1" stop-color="#88342E" stop-opacity="0"/>
</radialGradient>
</defs>
</svg>
