<svg width="774" height="98" viewBox="50 170 824 12" fill="none" xmlns="http://www.w3.org/2000/svg">
<g filter="url(#filter0_d_431_43)">
<path d="M745.797 165.491C745.796 172.774 747.954 179.894 751.999 185.95C756.044 192.007 761.794 196.728 768.522 199.516C775.25 202.304 782.654 203.035 789.797 201.615C796.94 200.195 803.502 196.689 808.653 191.539C813.803 186.39 817.311 179.829 818.732 172.686C820.154 165.543 819.425 158.139 816.638 151.411C813.852 144.682 809.132 138.931 803.077 134.884C797.021 130.838 789.902 128.678 782.619 128.678C777.784 128.677 772.996 129.628 768.529 131.478C764.061 133.328 760.002 136.039 756.583 139.457C753.163 142.876 750.451 146.935 748.6 151.401C746.75 155.868 745.797 160.656 745.797 165.491V165.491Z" fill="url(#paint0_radial_431_43)"/>
<path d="M745.797 165.491C745.796 172.774 747.954 179.894 751.999 185.95C756.044 192.007 761.794 196.728 768.522 199.516C775.25 202.304 782.654 203.035 789.797 201.615C796.94 200.195 803.502 196.689 808.653 191.539C813.803 186.39 817.311 179.829 818.732 172.686C820.154 165.543 819.425 158.139 816.638 151.411C813.852 144.682 809.132 138.931 803.077 134.884C797.021 130.838 789.902 128.678 782.619 128.678C777.784 128.677 772.996 129.628 768.529 131.478C764.061 133.328 760.002 136.039 756.583 139.457C753.163 142.876 750.451 146.935 748.6 151.401C746.75 155.868 745.797 160.656 745.797 165.491V165.491Z" fill="url(#paint1_radial_431_43)" style="mix-blend-mode:overlay"/>
<path d="M745.797 165.491C745.796 172.774 747.954 179.894 751.999 185.95C756.044 192.007 761.794 196.728 768.522 199.516C775.25 202.304 782.654 203.035 789.797 201.615C796.94 200.195 803.502 196.689 808.653 191.539C813.803 186.39 817.311 179.829 818.732 172.686C820.154 165.543 819.425 158.139 816.638 151.411C813.852 144.682 809.132 138.931 803.077 134.884C797.021 130.838 789.902 128.678 782.619 128.678C777.784 128.677 772.996 129.628 768.529 131.478C764.061 133.328 760.002 136.039 756.583 139.457C753.163 142.876 750.451 146.935 748.6 151.401C746.75 155.868 745.797 160.656 745.797 165.491V165.491Z" fill="url(#paint2_radial_431_43)" style="mix-blend-mode:overlay"/>
<path d="M174.627 165.034C174.629 172.398 172.447 179.598 168.357 185.722C164.266 191.846 158.452 196.619 151.649 199.439C144.845 202.258 137.359 202.997 130.136 201.561C122.913 200.125 116.278 196.58 111.07 191.373C105.861 186.166 102.315 179.532 100.877 172.309C99.4398 165.086 100.177 157.6 102.995 150.796C105.812 143.992 110.585 138.176 116.708 134.085C122.831 129.993 130.03 127.809 137.394 127.809C142.283 127.808 147.125 128.77 151.642 130.64C156.159 132.51 160.264 135.252 163.722 138.709C167.179 142.166 169.922 146.27 171.793 150.786C173.664 155.303 174.627 160.145 174.627 165.034V165.034Z" fill="url(#paint3_radial_431_43)"/>
<path d="M174.627 165.034C174.629 172.398 172.447 179.598 168.357 185.722C164.266 191.846 158.452 196.619 151.649 199.439C144.845 202.258 137.359 202.997 130.136 201.561C122.913 200.125 116.278 196.58 111.07 191.373C105.861 186.166 102.315 179.532 100.877 172.309C99.4398 165.086 100.177 157.6 102.995 150.796C105.812 143.992 110.585 138.176 116.708 134.085C122.831 129.993 130.03 127.809 137.394 127.809C142.283 127.808 147.125 128.77 151.642 130.64C156.159 132.51 160.264 135.252 163.722 138.709C167.179 142.166 169.922 146.27 171.793 150.786C173.664 155.303 174.627 160.145 174.627 165.034V165.034Z" fill="url(#paint4_radial_431_43)" style="mix-blend-mode:overlay"/>
<path d="M174.627 165.034C174.629 172.398 172.447 179.598 168.357 185.722C164.266 191.846 158.452 196.619 151.649 199.439C144.845 202.258 137.359 202.997 130.136 201.561C122.913 200.125 116.278 196.58 111.07 191.373C105.861 186.166 102.315 179.532 100.877 172.309C99.4398 165.086 100.177 157.6 102.995 150.796C105.812 143.992 110.585 138.176 116.708 134.085C122.831 129.993 130.03 127.809 137.394 127.809C142.283 127.808 147.125 128.77 151.642 130.64C156.159 132.51 160.264 135.252 163.722 138.709C167.179 142.166 169.922 146.27 171.793 150.786C173.664 155.303 174.627 160.145 174.627 165.034V165.034Z" fill="url(#paint5_radial_431_43)" style="mix-blend-mode:overlay"/>
<path d="M785.305 202.321H135.397C125.59 176.577 125.59 153.732 135.397 128H785.305C795.094 153.732 795.094 176.602 785.305 202.321Z" fill="url(#paint6_linear_431_43)"/>
<path d="M161.587 127.809H158.607C158.607 127.809 154.657 139.52 155.627 162.831C156.597 186.143 161.587 202.275 161.587 202.275H164.567C164.567 202.275 159.641 189.256 158.607 162.831C157.573 136.407 161.587 127.809 161.587 127.809Z" fill="url(#paint7_linear_431_43)"/>
<path d="M758.972 128H761.952C761.952 128 765.902 139.711 764.932 163.022C763.962 186.334 758.972 202.466 758.972 202.466H755.992C755.992 202.466 760.917 189.447 761.952 163.022C762.986 136.598 758.972 128 758.972 128Z" fill="url(#paint8_linear_431_43)"/>
<g style="mix-blend-mode:screen" opacity="0.6">
<path style="mix-blend-mode:screen" d="M804.832 148.461C804.752 170.521 805.751 188.403 807.034 188.403C808.317 188.403 809.43 170.555 809.532 148.473C809.634 126.39 808.612 108.531 807.261 108.531C805.91 108.531 804.9 126.401 804.832 148.461Z" fill="url(#paint9_radial_431_43)"/>
<g style="mix-blend-mode:screen" filter="url(#filter1_f_431_43)">
<path d="M807.148 154.126C844.955 154.24 875.621 151.856 875.621 148.688C875.621 145.52 844.967 142.932 807.182 142.818C769.397 142.705 738.72 145.089 738.709 148.245C738.697 151.402 769.341 154.002 807.148 154.126Z" fill="url(#paint10_radial_431_43)" style="mix-blend-mode:screen"/>
</g>
<g style="mix-blend-mode:screen" filter="url(#filter2_f_431_43)">
<path d="M805.502 150.119C821.056 165.764 834.397 177.708 835.316 176.8C836.236 175.891 824.371 162.471 808.828 146.815C793.285 131.158 779.934 119.226 779.014 120.134C778.094 121.042 789.959 134.474 805.502 150.119Z" fill="url(#paint11_radial_431_43)" style="mix-blend-mode:screen"/>
</g>
<path style="mix-blend-mode:screen" d="M808.817 150.119C824.462 134.564 836.406 121.224 835.498 120.304C834.59 119.385 821.17 131.249 805.513 146.792C789.857 162.335 777.924 175.687 778.832 176.607C779.741 177.526 793.172 165.673 808.817 150.119Z" fill="url(#paint12_radial_431_43)"/>
<g style="mix-blend-mode:screen" filter="url(#filter3_f_431_43)">
<path d="M777.717 154.002C774.679 137.685 785.443 121.994 801.76 118.955C818.077 115.916 833.768 126.68 836.807 142.997C839.846 159.314 829.082 175.006 812.765 178.044C796.448 181.083 780.756 170.319 777.717 154.002Z" fill="url(#paint13_radial_431_43)" style="mix-blend-mode:screen"/>
</g>
</g>
</g>
<defs>
<filter id="filter0_d_431_43" x="-23" y="0.530762" width="998.621" height="293.936" filterUnits="userSpaceOnUse" color-interpolation-filters="sRGB">
<feFlood flood-opacity="0" result="BackgroundImageFix"/>
<feColorMatrix in="SourceAlpha" type="matrix" values="0 0 0 0 0 0 0 0 0 0 0 0 0 0 0 0 0 0 127 0" result="hardAlpha"/>
<feOffset dy="-8"/>
<feGaussianBlur stdDeviation="50"/>
<feComposite in2="hardAlpha" operator="out"/>
<feColorMatrix type="matrix" values="0 0 0 0 0 0 0 0 0 0 0 0 0 0 0 0 0 0 1 0"/>
<feBlend mode="normal" in2="BackgroundImageFix" result="effect1_dropShadow_431_43"/>
<feBlend mode="normal" in="SourceGraphic" in2="effect1_dropShadow_431_43" result="shape"/>
</filter>
<filter id="filter1_f_431_43" x="733.589" y="137.695" width="147.152" height="21.5556" filterUnits="userSpaceOnUse" color-interpolation-filters="sRGB">
<feFlood flood-opacity="0" result="BackgroundImageFix"/>
<feBlend mode="normal" in="SourceGraphic" in2="BackgroundImageFix" result="shape"/>
<feGaussianBlur stdDeviation="2.55993" result="effect1_foregroundBlur_431_43"/>
</filter>
<filter id="filter2_f_431_43" x="773.844" y="114.966" width="66.6421" height="67.0024" filterUnits="userSpaceOnUse" color-interpolation-filters="sRGB">
<feFlood flood-opacity="0" result="BackgroundImageFix"/>
<feBlend mode="normal" in="SourceGraphic" in2="BackgroundImageFix" result="shape"/>
<feGaussianBlur stdDeviation="2.55993" result="effect1_foregroundBlur_431_43"/>
</filter>
<filter id="filter3_f_431_43" x="772.084" y="113.322" width="70.3559" height="70.3559" filterUnits="userSpaceOnUse" color-interpolation-filters="sRGB">
<feFlood flood-opacity="0" result="BackgroundImageFix"/>
<feBlend mode="normal" in="SourceGraphic" in2="BackgroundImageFix" result="shape"/>
<feGaussianBlur stdDeviation="2.55993" result="effect1_foregroundBlur_431_43"/>
</filter>
<radialGradient id="paint0_radial_431_43" cx="0" cy="0" r="1" gradientUnits="userSpaceOnUse" gradientTransform="translate(795.525 192.213) rotate(-65.4401) scale(73.6247 73.6247)">
<stop offset="0.254752" stop-color="#985E3E"/>
<stop offset="0.482341" stop-color="#FFA573"/>
<stop offset="0.688171" stop-color="#EECCB9"/>
<stop offset="0.805005" stop-color="#D9A382"/>
</radialGradient>
<radialGradient id="paint1_radial_431_43" cx="0" cy="0" r="1" gradientUnits="userSpaceOnUse" gradientTransform="translate(806.134 150.437) rotate(43.2902) scale(16.3423 16.3423)">
<stop stop-color="white"/>
<stop offset="1" stop-color="white" stop-opacity="0"/>
</radialGradient>
<radialGradient id="paint2_radial_431_43" cx="0" cy="0" r="1" gradientUnits="userSpaceOnUse" gradientTransform="translate(800.803 173.56) rotate(-23.5747) scale(15.9235 15.9236)">
<stop offset="0.0783153" stop-color="white"/>
<stop offset="1" stop-color="white" stop-opacity="0"/>
</radialGradient>
<radialGradient id="paint3_radial_431_43" cx="0" cy="0" r="1" gradientUnits="userSpaceOnUse" gradientTransform="translate(124.344 192.054) rotate(-114.56) scale(74.4479 74.4478)">
<stop offset="0.254752" stop-color="#985E3E"/>
<stop offset="0.482341" stop-color="#FFA573"/>
<stop offset="0.688171" stop-color="#EECCB9"/>
<stop offset="0.805005" stop-color="#D9A382"/>
</radialGradient>
<radialGradient id="paint4_radial_431_43" cx="0" cy="0" r="1" gradientUnits="userSpaceOnUse" gradientTransform="translate(113.616 149.811) rotate(136.71) scale(16.525 16.525)">
<stop stop-color="white"/>
<stop offset="1" stop-color="white" stop-opacity="0"/>
</radialGradient>
<radialGradient id="paint5_radial_431_43" cx="0" cy="0" r="1" gradientUnits="userSpaceOnUse" gradientTransform="translate(119.007 173.192) rotate(-156.425) scale(16.1016 16.1016)">
<stop offset="0.0783153" stop-color="white"/>
<stop offset="1" stop-color="white" stop-opacity="0"/>
</radialGradient>
<linearGradient id="paint6_linear_431_43" x1="460.351" y1="202.321" x2="460.351" y2="128" gradientUnits="userSpaceOnUse">
<stop offset="0.19" stop-color="#005F5F"/>
<stop offset="0.461458" stop-color="#008383"/>
<stop offset="0.810417" stop-color="#008383"/>
<stop offset="1" stop-color="#005F5F"/>
</linearGradient>
<linearGradient id="paint7_linear_431_43" x1="160.097" y1="127.514" x2="160.097" y2="199.028" gradientUnits="userSpaceOnUse">
<stop stop-color="#FFA573"/>
<stop offset="0.22" stop-color="#D9A382"/>
<stop offset="0.66" stop-color="#985E3E"/>
<stop offset="1" stop-color="#FFA573"/>
</linearGradient>
<linearGradient id="paint8_linear_431_43" x1="760.462" y1="127.705" x2="760.462" y2="199.218" gradientUnits="userSpaceOnUse">
<stop stop-color="#FFA573"/>
<stop offset="0.22" stop-color="#D9A382"/>
<stop offset="0.66" stop-color="#985E3E"/>
<stop offset="1" stop-color="#FFA573"/>
</linearGradient>
<radialGradient id="paint9_radial_431_43" cx="0" cy="0" r="1" gradientUnits="userSpaceOnUse" gradientTransform="translate(804.336 150.999) rotate(180) scale(1.78024 38.434)">
<stop offset="0.09" stop-color="#B6B474"/>
<stop offset="0.37" stop-color="#AC8D6B"/>
<stop offset="0.45" stop-color="#A58567" stop-opacity="0.91"/>
<stop offset="0.62" stop-color="#93715C" stop-opacity="0.67"/>
<stop offset="0.84" stop-color="#75514A" stop-opacity="0.29"/>
<stop offset="1" stop-color="#5F383D" stop-opacity="0"/>
</radialGradient>
<radialGradient id="paint10_radial_431_43" cx="0" cy="0" r="1" gradientUnits="userSpaceOnUse" gradientTransform="translate(812.377 146.748) rotate(90) scale(4.29163 65.9005)">
<stop offset="0.09" stop-color="#B6B474"/>
<stop offset="0.37" stop-color="#AC8D6B"/>
<stop offset="0.45" stop-color="#A58567" stop-opacity="0.91"/>
<stop offset="0.62" stop-color="#93715C" stop-opacity="0.67"/>
<stop offset="0.84" stop-color="#75514A" stop-opacity="0.29"/>
<stop offset="1" stop-color="#5F383D" stop-opacity="0"/>
</radialGradient>
<radialGradient id="paint11_radial_431_43" cx="0" cy="0" r="1" gradientUnits="userSpaceOnUse" gradientTransform="translate(804.021 144.189) rotate(135.725) scale(1.77597 38.4375)">
<stop offset="0.09" stop-color="#B6B474"/>
<stop offset="0.37" stop-color="#AC8D6B"/>
<stop offset="0.45" stop-color="#A58567" stop-opacity="0.91"/>
<stop offset="0.62" stop-color="#93715C" stop-opacity="0.67"/>
<stop offset="0.84" stop-color="#75514A" stop-opacity="0.29"/>
<stop offset="1" stop-color="#5F383D" stop-opacity="0"/>
</radialGradient>
<radialGradient id="paint12_radial_431_43" cx="0" cy="0" r="1" gradientUnits="userSpaceOnUse" gradientTransform="translate(807.276 142.131) rotate(45.7252) scale(1.77597 38.4375)">
<stop offset="0.09" stop-color="#B6B474"/>
<stop offset="0.37" stop-color="#AC8D6B"/>
<stop offset="0.45" stop-color="#A58567" stop-opacity="0.91"/>
<stop offset="0.62" stop-color="#93715C" stop-opacity="0.67"/>
<stop offset="0.84" stop-color="#75514A" stop-opacity="0.29"/>
<stop offset="1" stop-color="#5F383D" stop-opacity="0"/>
</radialGradient>
<radialGradient id="paint13_radial_431_43" cx="0" cy="0" r="1" gradientUnits="userSpaceOnUse" gradientTransform="translate(807.257 148.874) rotate(176.57) scale(28.9061)">
<stop offset="0.09" stop-color="#E2EBB0"/>
<stop offset="0.32" stop-color="#E1C492"/>
<stop offset="0.4" stop-color="#DBBA8B" stop-opacity="0.93"/>
<stop offset="0.54" stop-color="#CBA079" stop-opacity="0.75"/>
<stop offset="0.73" stop-color="#B0755B" stop-opacity="0.45"/>
<stop offset="0.97" stop-color="#8D3B33" stop-opacity="0.05"/>
<stop offset="1" stop-color="#88342E" stop-opacity="0"/>
</radialGradient>
</defs>
</svg>
