<svg width="56" height="68" viewBox="0 0 56 68" fill="none" xmlns="http://www.w3.org/2000/svg">
<path d="M4.62435 0.825983L52.0144 1.08063C52.7669 1.10108 53.4874 1.38924 54.0464 1.89332C54.6054 2.39739 54.9663 3.08432 55.0643 3.83066C55.1038 4.16826 55.0728 4.51042 54.973 4.83538C49.1518 25.0797 40.6764 44.2187 31.3689 63.0714C31.1077 63.576 30.7149 64.0005 30.232 64.3C29.7492 64.5996 29.1943 64.763 28.6262 64.7728L12.9602 64.6887C12.519 64.6938 12.0846 64.5798 11.7028 64.3587C11.321 64.1376 11.0059 63.8175 10.7908 63.4323C10.5757 63.047 10.4686 62.6108 10.4807 62.1698C10.4928 61.7287 10.6238 61.2991 10.8597 60.9262C17.1565 48.0028 22.7285 35.3575 27.9613 21.9625C28.1028 21.5308 28.1402 21.0719 28.0705 20.623C28.0008 20.1741 27.8259 19.7481 27.5601 19.3797C27.2943 19.0114 26.9453 18.711 26.5413 18.5033C26.1373 18.2956 25.6899 18.1863 25.2357 18.1845L6.12522 18.0818C5.38703 18.0676 4.68088 17.7776 4.14589 17.2687C3.61089 16.7599 3.28585 16.0692 3.23473 15.3326C2.92912 10.6114 2.72115 8.24442 2.19476 3.54657C2.1445 3.20244 2.17037 2.85146 2.27047 2.51839C2.37057 2.18532 2.54247 1.87825 2.77413 1.61884C3.00578 1.35943 3.29156 1.15401 3.61123 1.01702C3.93091 0.880026 4.27674 0.81481 4.62435 0.825983Z" fill="#9B978A"/>
<path d="M4.53805 0.935788L51.9281 1.19043C52.6787 1.21043 53.3978 1.49685 53.9566 1.99845C54.5153 2.50004 54.8774 3.18409 54.978 3.92821C55.0155 4.2699 54.9844 4.61563 54.8867 4.94518C49.0533 25.1772 40.5656 44.3284 31.2827 63.1689C31.0215 63.6762 30.627 64.1026 30.1416 64.4024C29.6561 64.7022 29.0982 64.864 28.5277 64.8703L12.8495 64.7861C12.4083 64.7912 11.9738 64.6773 11.592 64.4561C11.2102 64.235 10.8952 63.9149 10.6801 63.5297C10.465 63.1444 10.3579 62.7083 10.37 62.2672C10.3821 61.8262 10.513 61.3965 10.7489 61.0237C17.0579 48.1126 22.63 35.4549 27.8628 22.0722C28.0039 21.6416 28.0415 21.1837 27.9724 20.7358C27.9033 20.2878 27.7296 19.8626 27.4652 19.4944C27.2008 19.1263 26.8533 18.8258 26.4509 18.6173C26.0485 18.4087 25.6026 18.2981 25.1494 18.2943L6.03892 18.1916C5.29748 18.1774 4.58828 17.886 4.051 17.3749C3.51372 16.8637 3.18734 16.1699 3.13623 15.4301C2.83061 10.7089 2.6226 8.35416 2.10853 3.64413C2.06023 3.30092 2.08756 2.95131 2.18855 2.61977C2.28955 2.28822 2.4618 1.98276 2.69324 1.72477C2.92467 1.46677 3.20971 1.26247 3.52838 1.12619C3.84704 0.989902 4.19163 0.924921 4.53805 0.935788Z" fill="#9B978A"/>
<path d="M4.45174 1.0335L51.8418 1.28815C52.5943 1.3086 53.3148 1.59676 53.8738 2.10084C54.4328 2.60491 54.7937 3.29184 54.8916 4.03818C54.9312 4.37578 54.9002 4.71794 54.8004 5.0429C48.9547 25.2871 40.467 44.4261 31.1963 63.2789C30.932 63.7836 30.5367 64.2079 30.052 64.5072C29.5673 64.8066 29.0109 64.97 28.4413 64.9803L12.7386 64.8959C12.2974 64.9011 11.863 64.7871 11.4812 64.566C11.0994 64.3448 10.7843 64.0248 10.5692 63.6395C10.3541 63.2542 10.247 62.8181 10.2591 62.377C10.2712 61.936 10.4022 61.5064 10.6381 61.1335C16.9471 48.2102 22.5314 35.5648 27.7642 22.1699C27.9054 21.7392 27.943 21.2813 27.8739 20.8334C27.8048 20.3855 27.631 19.9602 27.3666 19.5921C27.1022 19.224 26.7547 18.9235 26.3523 18.7149C25.95 18.5064 25.5041 18.3957 25.0509 18.3919L5.94034 18.2893C5.20215 18.2751 4.496 17.985 3.96101 17.4762C3.42602 16.9673 3.10097 16.2766 3.04985 15.5401C2.74424 10.8189 2.53629 8.45187 2.02216 3.75409C1.97189 3.40995 1.99776 3.05898 2.09786 2.72591C2.19796 2.39284 2.36986 2.08577 2.60152 1.82636C2.83318 1.56695 3.11895 1.36153 3.43862 1.22454C3.7583 1.08755 4.10413 1.02233 4.45174 1.0335Z" fill="#9B978A"/>
<path d="M4.36532 1.14311L51.7554 1.39776C52.506 1.41775 53.225 1.70417 53.7838 2.20577C54.3426 2.70737 54.7047 3.39141 54.8053 4.13554C54.8365 4.47726 54.8056 4.8218 54.7141 5.15251C48.8558 25.4457 40.3561 44.5355 30.9998 63.3511C30.7376 63.8575 30.3428 64.2833 29.8576 64.5829C29.3724 64.8825 28.815 65.0448 28.2448 65.0525L12.6033 64.9685C12.1632 64.9714 11.7304 64.8558 11.3503 64.6338C10.9703 64.4117 10.6569 64.0915 10.4433 63.7067C10.2297 63.3218 10.1237 62.8866 10.1363 62.4466C10.1489 62.0066 10.2798 61.5781 10.5151 61.2062C16.8363 48.2951 22.4207 35.6376 27.6534 22.2549C27.7971 21.8251 27.8369 21.3675 27.7696 20.9194C27.7023 20.4714 27.5298 20.0456 27.2663 19.677C27.0028 19.3085 26.6557 19.0076 26.2535 18.799C25.8513 18.5904 25.4054 18.48 24.9523 18.477L5.82958 18.3742C5.09029 18.357 4.38409 18.0643 3.84939 17.5535C3.3147 17.0426 2.99008 16.3505 2.93916 15.6128C2.63355 10.8916 2.4378 8.53692 1.92373 3.82688C1.87915 3.48451 1.90962 3.13653 2.01308 2.80714C2.11655 2.47774 2.29047 2.17481 2.52282 1.91942C2.75516 1.66403 3.04034 1.46229 3.35851 1.32823C3.67669 1.19417 4.02026 1.131 4.36532 1.14311Z" fill="#9B978A"/>
<path d="M4.27896 1.24053L51.6691 1.49518C52.4202 1.51602 53.139 1.80461 53.696 2.30887C54.253 2.81313 54.6115 3.49985 54.7067 4.24514C54.7502 4.58192 54.7233 4.92409 54.6277 5.24993C48.7574 25.494 40.2575 44.6329 30.9378 63.4854C30.6724 63.9893 30.277 64.4129 29.7924 64.7121C29.3079 65.0113 28.7521 65.1753 28.1828 65.1869L12.5045 65.1026C12.0644 65.1056 11.6316 64.9899 11.2515 64.7679C10.8714 64.5459 10.5582 64.2256 10.3446 63.8408C10.131 63.4559 10.0248 63.0207 10.0375 62.5807C10.0501 62.1407 10.181 61.7123 10.4163 61.3403C16.7376 48.417 22.3341 35.7717 27.5792 22.3768C27.7204 21.9462 27.7579 21.4883 27.6888 21.0404C27.6197 20.5925 27.4459 20.1672 27.1816 19.7991C26.9172 19.431 26.5697 19.1304 26.1673 18.9219C25.7649 18.7133 25.319 18.6027 24.8658 18.5989L5.75536 18.4962C5.01673 18.4795 4.31066 18.189 3.77424 17.6809C3.23783 17.1729 2.90934 16.4836 2.8526 15.747C2.55925 11.0258 2.36358 8.6589 1.84945 3.96112C1.79918 3.61699 1.82497 3.26601 1.92508 2.93294C2.02518 2.59987 2.19715 2.29282 2.42881 2.03341C2.66047 1.774 2.94617 1.56856 3.26584 1.43157C3.58551 1.29458 3.93135 1.22936 4.27896 1.24053Z" fill="#9B978A"/>
<path d="M4.18027 1.35083L51.5827 1.60554C52.3319 1.62594 53.0493 1.91279 53.606 2.41457C54.1628 2.91635 54.5224 3.60017 54.6203 4.34325C54.6578 4.68494 54.6267 5.03067 54.529 5.36022C48.6588 25.6043 40.1465 44.7431 30.8269 63.5834C30.5636 64.089 30.1686 64.514 29.6836 64.8135C29.1987 65.113 28.6418 65.2758 28.0719 65.2848L12.3937 65.2006C11.9535 65.2035 11.5207 65.0879 11.1406 64.8659C10.7605 64.6439 10.4473 64.3236 10.2337 63.9388C10.0201 63.5539 9.91403 63.1187 9.92665 62.6787C9.93927 62.2387 10.0701 61.8102 10.3054 61.4383C16.6266 48.5272 22.2355 35.8698 27.4805 22.4871C27.6245 22.0564 27.6642 21.5977 27.5963 21.1487C27.5284 20.6997 27.3548 20.2732 27.0899 19.9043C26.825 19.5355 26.4763 19.2348 26.0725 19.027C25.6686 18.8193 25.2213 18.7103 24.7671 18.7092L5.65668 18.6065C4.91652 18.5921 4.20876 18.3003 3.67348 17.7889C3.1382 17.2775 2.81443 16.5838 2.76625 15.8451C2.4729 11.124 2.26491 8.7692 1.7631 4.05923C1.71279 3.71671 1.73827 3.36734 1.83773 3.03574C1.93719 2.70414 2.10823 2.39841 2.33875 2.14012C2.56927 1.88184 2.8536 1.67729 3.1718 1.54091C3.49 1.40454 3.83426 1.33964 4.18027 1.35083Z" fill="#9B978A"/>
<path d="M4.09402 1.44861L51.4841 1.70325C52.2365 1.7237 52.9571 2.01187 53.5161 2.51594C54.0751 3.02002 54.436 3.70697 54.5339 4.4533C54.5735 4.79091 54.5424 5.13305 54.4427 5.458C48.5602 25.702 40.048 44.8408 30.7038 63.6933C30.4425 64.1979 30.0496 64.6224 29.5668 64.9219C29.0839 65.2215 28.5291 65.3848 27.961 65.3947L12.2828 65.3105C11.8426 65.3134 11.4098 65.1978 11.0297 64.9758C10.6497 64.7537 10.3364 64.4335 10.1228 64.0487C9.90921 63.6638 9.8031 63.2286 9.81572 62.7886C9.82834 62.3486 9.95922 61.9201 10.1945 61.5482C16.5281 48.6249 22.1246 35.9797 27.3819 22.5849C27.5256 22.1551 27.5654 21.6975 27.4981 21.2495C27.4308 20.8014 27.2584 20.3756 26.9949 20.0071C26.7314 19.6385 26.3843 19.3376 25.9821 19.129C25.5798 18.9204 25.134 18.81 24.6809 18.807L5.57035 18.7043C4.83087 18.6904 4.12329 18.4007 3.5863 17.8921C3.04931 17.3835 2.72163 16.6927 2.66759 15.9551C2.37424 11.2339 2.17857 8.867 1.66443 4.16922C1.6267 3.82727 1.66132 3.48119 1.76611 3.1535C1.8709 2.82582 2.04354 2.52386 2.27269 2.26725C2.50184 2.01065 2.78239 1.80514 3.09618 1.6641C3.40997 1.52306 3.74999 1.44964 4.09402 1.44861Z" fill="#9B978A"/>
<path d="M4.0077 1.55868L51.3978 1.81332C52.1491 1.83084 52.8695 2.1164 53.4288 2.61845C53.9881 3.1205 54.3494 3.80596 54.4477 4.55109C54.4851 4.89277 54.4541 5.2385 54.3564 5.56805C48.4739 25.812 39.9371 44.9508 30.593 63.7909C30.3338 64.2972 29.9415 64.7232 29.4582 65.0231C28.9749 65.3229 28.4189 65.4852 27.8502 65.4924L12.172 65.4082C11.7319 65.4111 11.299 65.2955 10.919 65.0735C10.5389 64.8514 10.2256 64.5312 10.012 64.1463C9.79842 63.7615 9.69238 63.3262 9.705 62.8862C9.71762 62.4462 9.84843 62.0178 10.0837 61.6458C16.4172 48.7349 22.0261 36.0774 27.2833 22.6949C27.427 22.2651 27.4669 21.8075 27.3996 21.3594C27.3323 20.9114 27.1598 20.4856 26.8963 20.117C26.6328 19.7485 26.2857 19.4476 25.8835 19.239C25.4813 19.0304 25.0354 18.92 24.5823 18.917L5.4963 18.8144C4.75614 18.8 4.04838 18.5082 3.5131 17.9968C2.97782 17.4854 2.65405 16.7917 2.60588 16.053C2.31252 11.3319 2.11679 8.97717 1.60272 4.26713C1.55479 3.92601 1.58156 3.57856 1.68114 3.2488C1.78072 2.91904 1.95073 2.61485 2.17945 2.35727C2.40816 2.09969 2.6901 1.89486 3.00577 1.75697C3.32143 1.61909 3.66331 1.55144 4.0077 1.55868Z" fill="#9B978A"/>
<path d="M3.92128 1.65564L51.3113 1.91028C52.0638 1.93073 52.7843 2.2189 53.3433 2.72297C53.9024 3.22705 54.2633 3.914 54.3612 4.66034C54.4008 4.99794 54.3697 5.34008 54.27 5.66504C48.3752 25.909 39.8385 45.0477 30.482 63.9001C30.2198 64.4065 29.825 64.8321 29.3398 65.1318C28.8546 65.4314 28.2972 65.5938 27.727 65.6014L12.061 65.5173C11.6209 65.5202 11.1881 65.4046 10.808 65.1826C10.4279 64.9605 10.1146 64.6403 9.901 64.2555C9.68739 63.8706 9.58135 63.4353 9.59397 62.9953C9.60659 62.5554 9.73747 62.1269 9.97279 61.7549C16.3186 48.8318 21.9273 36.1866 27.1969 22.7918C27.3409 22.3611 27.3806 21.9024 27.3127 21.4534C27.2448 21.0044 27.0712 20.5779 26.8063 20.209C26.5414 19.8402 26.1927 19.5395 25.7889 19.3317C25.3851 19.1239 24.9377 19.015 24.4836 19.0139L5.37314 18.9112C4.63581 18.8943 3.93115 18.6033 3.39674 18.095C2.86233 17.5867 2.53649 16.8976 2.48265 16.162C2.1893 11.4409 1.99356 9.07396 1.49169 4.37625C1.45395 4.0343 1.48865 3.68822 1.59344 3.36053C1.69823 3.03285 1.87079 2.73091 2.09995 2.4743C2.3291 2.2177 2.60973 2.01219 2.92352 1.87115C3.23731 1.73011 3.57725 1.65667 3.92128 1.65564Z" fill="#9B978A"/>
<path d="M3.83492 1.76587L51.225 2.02051C51.9763 2.03803 52.6967 2.32359 53.256 2.82564C53.8153 3.32769 54.1767 4.01316 54.2749 4.75829C54.3061 5.10001 54.2751 5.44453 54.1836 5.77524C48.2766 26.0191 39.7399 45.1578 30.3712 63.9979C30.11 64.5051 29.7155 64.9316 29.2301 65.2314C28.7446 65.5311 28.1867 65.6929 27.6162 65.6993L11.9502 65.6151C11.51 65.618 11.0772 65.5024 10.6972 65.2804C10.3171 65.0583 10.0039 64.7381 9.79024 64.3533C9.57663 63.9684 9.4706 63.5331 9.48322 63.0932C9.49584 62.6532 9.62665 62.2247 9.86196 61.8527C16.2077 48.9418 21.8288 36.2845 27.0984 22.902C27.242 22.4723 27.2818 22.0146 27.2146 21.5666C27.1473 21.1185 26.9748 20.6927 26.7113 20.3242C26.4477 19.9556 26.1007 19.6547 25.6985 19.4461C25.2963 19.2375 24.8503 19.1271 24.3972 19.1241L5.28679 19.0214C4.54663 19.007 3.83887 18.7152 3.30359 18.2038C2.76831 17.6924 2.44454 16.9987 2.39636 16.26C2.10301 11.5389 1.90721 9.18417 1.4054 4.47421C1.35711 4.131 1.38443 3.78139 1.48543 3.44984C1.58642 3.1183 1.75868 2.81282 1.99011 2.55483C2.22154 2.29683 2.50658 2.09255 2.82525 1.95626C3.14392 1.81998 3.48851 1.755 3.83492 1.76587Z" fill="#9B978A"/>
<path d="M3.74824 1.91248L51.1383 2.16712C51.8894 2.18796 52.6083 2.47655 53.1653 2.98081C53.7223 3.48507 54.0807 4.17179 54.176 4.91709C54.2155 5.25469 54.1845 5.59685 54.0847 5.92181C48.1777 26.1657 39.6287 45.3043 30.26 64.1566C29.9946 64.6605 29.5991 65.084 29.1146 65.3832C28.63 65.6824 28.0742 65.8464 27.5049 65.858L11.8267 65.7738C11.3865 65.7767 10.9537 65.6611 10.5737 65.439C10.1936 65.217 9.88037 64.8968 9.66676 64.5119C9.45315 64.1271 9.34704 63.6918 9.35966 63.2519C9.37228 62.8119 9.50316 62.3834 9.73848 62.0114C16.0965 49.1006 21.7298 36.4433 26.9994 23.0485C27.1403 22.6188 27.178 22.162 27.1095 21.7151C27.0411 21.2681 26.8684 20.8435 26.6054 20.4757C26.3424 20.1078 25.9965 19.8071 25.5957 19.5977C25.1949 19.3884 24.7505 19.2763 24.2984 19.2707L5.18784 19.168C4.44964 19.1538 3.74349 18.8637 3.2085 18.3549C2.67351 17.846 2.34846 17.1553 2.29735 16.4188C2.01625 11.6977 1.82061 9.33078 1.31873 4.63307C1.28099 4.29111 1.31562 3.94505 1.42041 3.61737C1.5252 3.28969 1.69776 2.98772 1.92691 2.73112C2.15607 2.47451 2.43669 2.26901 2.75048 2.12797C3.06427 1.98692 3.40421 1.91351 3.74824 1.91248Z" fill="#9B978A"/>
<path d="M3.66214 1.97339L51.0523 2.22803C51.8022 2.24594 52.521 2.53192 53.0782 3.03416C53.6355 3.5364 53.9944 4.22166 54.0899 4.96574C54.1274 5.30743 54.0963 5.65316 53.9986 5.98271C48.0793 26.2265 39.5303 45.3652 30.1494 64.2051C29.8861 64.7107 29.4911 65.1356 29.0061 65.4351C28.5212 65.7346 27.9643 65.8975 27.3944 65.9065L11.7162 65.8223C11.276 65.8252 10.8432 65.7096 10.4631 65.4876C10.083 65.2656 9.76979 64.9453 9.55618 64.5605C9.34257 64.1756 9.23654 63.7403 9.24916 63.3003C9.26178 62.8604 9.39258 62.4319 9.6279 62.06C15.9982 49.1492 21.6193 36.4918 26.901 23.1094C27.0447 22.6797 27.0846 22.222 27.0173 21.7739C26.95 21.3259 26.7775 20.9001 26.514 20.5315C26.2505 20.163 25.9034 19.8621 25.5012 19.6535C25.099 19.4449 24.6531 19.3345 24.2 19.3315L5.08947 19.2288C4.35058 19.2141 3.64426 18.9219 3.11098 18.4103C2.5777 17.8987 2.25654 17.2051 2.21131 16.4674C1.91796 11.7463 1.72224 9.39163 1.23269 4.68173C1.1844 4.33852 1.21165 3.98891 1.31264 3.65736C1.41364 3.32582 1.58589 3.02034 1.81733 2.76235C2.04876 2.50435 2.3338 2.30007 2.65247 2.16378C2.97113 2.0275 3.31572 1.96252 3.66214 1.97339Z" fill="#9B978A"/>
<path d="M3.57581 2.07075L50.9414 2.32526C51.6925 2.3461 52.4113 2.63469 52.9683 3.13895C53.5253 3.64321 53.8838 4.32993 53.979 5.07522C54.0186 5.41283 53.9875 5.75496 53.8878 6.07992C47.9562 26.3236 39.395 45.4623 30.014 64.3145C29.7481 64.8169 29.3521 65.2387 28.8675 65.5358C28.3829 65.8329 27.8274 65.9945 27.259 66.0036L11.6053 65.9195C11.167 65.921 10.7364 65.8051 10.3582 65.5837C9.97991 65.3623 9.66788 65.0436 9.45465 64.6606C9.24142 64.2777 9.13476 63.8447 9.14572 63.4065C9.15668 62.9684 9.28485 62.5412 9.51696 62.1694C15.8872 49.2587 21.5207 36.6014 26.8025 23.2067C26.9459 22.7779 26.9858 22.3214 26.9191 21.8743C26.8525 21.4271 26.6812 21.0021 26.419 20.6338C26.1569 20.2655 25.8114 19.9644 25.4108 19.755C25.0101 19.5456 24.5657 19.4338 24.1137 19.4288L5.00313 19.3261C4.26408 19.3148 3.55637 19.0257 3.02079 18.5163C2.4852 18.0069 2.161 17.3145 2.11264 16.577C1.83155 11.8559 1.63583 9.50124 1.13402 4.79127C1.09618 4.4483 1.13117 4.10119 1.23669 3.77266C1.34221 3.44413 1.51586 3.14159 1.74635 2.8848C1.97683 2.62801 2.25892 2.42275 2.57418 2.28247C2.88943 2.14219 3.23075 2.07005 3.57581 2.07075Z" fill="#9B978A"/>
<path d="M3.4895 2.1684L50.9409 2.42337C51.692 2.44422 52.4108 2.73281 52.9678 3.23707C53.5248 3.74133 53.8833 4.42805 53.9785 5.17334C54.0159 5.51503 53.9849 5.86075 53.8872 6.19031C47.9434 26.434 39.3822 45.5725 29.989 64.4125C29.7257 64.918 29.3307 65.343 28.8457 65.6425C28.3607 65.942 27.8039 66.1048 27.2339 66.1138L11.4944 66.0293C11.0543 66.0322 10.6215 65.9166 10.2414 65.6946C9.86134 65.4726 9.54808 65.1523 9.33447 64.7675C9.12087 64.3826 9.01483 63.9473 9.02745 63.5074C9.04007 63.0674 9.17088 62.6389 9.4062 62.2669C15.7765 49.3562 21.4221 36.6989 26.7774 23.3169C26.9211 22.8872 26.9609 22.4295 26.8936 21.9815C26.8263 21.5334 26.6539 21.1077 26.3904 20.7391C26.1269 20.3705 25.7798 20.0696 25.3775 19.861C24.9753 19.6524 24.5294 19.5421 24.0763 19.539L4.90457 19.436C4.16441 19.4216 3.45664 19.1298 2.92137 18.6184C2.38609 18.107 2.06232 17.4133 2.01414 16.6746C1.73305 11.9535 1.54953 9.5989 1.04772 4.88893C1.00988 4.54595 1.04487 4.19884 1.15039 3.87032C1.25591 3.54179 1.42956 3.23925 1.66004 2.98245C1.89053 2.72566 2.17262 2.52041 2.48787 2.38013C2.80313 2.23985 3.14445 2.16771 3.4895 2.1684Z" fill="#9B978A"/>
<path d="M3.40308 2.27827L50.7932 2.53291C51.5443 2.55375 52.2631 2.84234 52.8201 3.3466C53.3771 3.85086 53.7356 4.53758 53.8308 5.28288C53.8624 5.62054 53.8315 5.96115 53.7396 6.28759C47.7835 26.5312 39.21 45.6697 29.8168 64.5096C29.5525 65.017 29.1556 65.4431 28.6683 65.7427C28.1809 66.0423 27.6215 66.2041 27.0495 66.2109L11.3713 66.1267C10.933 66.1282 10.5024 66.0123 10.1241 65.7909C9.7459 65.5695 9.43387 65.2507 9.22064 64.8678C9.00741 64.4849 8.90075 64.0518 8.91171 63.6137C8.92268 63.1756 9.05092 62.7484 9.28303 62.3766C15.6655 49.4659 21.3112 36.8087 26.6543 23.4266C26.7975 22.9962 26.837 22.538 26.7697 22.0895C26.7024 21.6409 26.5301 21.2145 26.2669 20.8451C26.0036 20.4757 25.6568 20.1737 25.2548 19.9637C24.8528 19.7536 24.4068 19.6415 23.9532 19.6364L4.80594 19.5335C4.06903 19.5191 3.36439 19.2287 2.83139 18.7196C2.2984 18.2105 1.9759 17.5199 1.92772 16.7844C1.64662 12.0634 1.45085 9.70869 0.961295 4.99879C0.923454 4.65581 0.958439 4.30871 1.06396 3.98018C1.16948 3.65165 1.34321 3.34911 1.57369 3.09232C1.80417 2.83553 2.08627 2.63027 2.40152 2.48999C2.71678 2.34971 3.05802 2.27757 3.40308 2.27827Z" fill="#9B978A"/>
<path d="M3.31673 2.37592L50.7068 2.63056C51.4565 2.6518 52.1737 2.94081 52.7287 3.44526C53.2837 3.9497 53.6396 4.63622 53.7321 5.38047C53.7695 5.72215 53.7385 6.06788 53.6408 6.39744C47.697 26.6411 39.1113 45.7796 29.6936 64.6193C29.4324 65.1266 29.0379 65.553 28.5524 65.8528C28.067 66.1526 27.509 66.3144 26.9385 66.3207L11.2726 66.2365C10.8324 66.2395 10.3996 66.1239 10.0195 65.9018C9.63948 65.6798 9.32623 65.3596 9.11262 64.9747C8.89901 64.5899 8.7929 64.1546 8.80552 63.7146C8.81814 63.2747 8.94902 62.8462 9.18434 62.4742C15.5669 49.5635 21.2125 36.9063 26.5556 23.5242C26.7017 23.0954 26.7438 22.638 26.6783 22.1898C26.6129 21.7416 26.4418 21.3153 26.1792 20.9463C25.9165 20.5772 25.5697 20.2759 25.1677 20.0673C24.7656 19.8587 24.3197 19.7487 23.8667 19.7463L4.71945 19.6435C3.98039 19.6321 3.27268 19.343 2.7371 18.8336C2.20152 18.3242 1.87731 17.6318 1.82895 16.8943C1.56018 12.161 1.36442 9.80635 0.87487 5.09645C0.837028 4.75347 0.872014 4.40636 0.977534 4.07784C1.08305 3.74931 1.25678 3.44677 1.48727 3.18997C1.71775 2.93318 1.99984 2.72793 2.31509 2.58765C2.63035 2.44737 2.97167 2.37523 3.31673 2.37592Z" fill="#9B978A"/>
<path d="M3.2181 2.48527L50.6204 2.73998C51.3701 2.76122 52.0873 3.05023 52.6423 3.55468C53.1973 4.05912 53.5532 4.74564 53.6457 5.48988C53.6853 5.82749 53.6543 6.16964 53.5546 6.4946C47.5984 26.7505 39.0004 45.8766 29.5827 64.7164C29.3205 65.2227 28.9258 65.6485 28.4406 65.9481C27.9554 66.2478 27.3979 66.41 26.8277 66.4177L11.1495 66.3335C10.7215 66.3265 10.3027 66.2076 9.93495 65.9885C9.56717 65.7694 9.26318 65.4578 9.05319 65.0848C8.8432 64.7117 8.73453 64.2902 8.73803 63.8621C8.74153 63.4341 8.85705 63.0143 9.07311 62.6448C15.4679 49.7341 21.1135 37.0769 26.4443 23.6947C26.5901 23.2653 26.6319 22.8074 26.5664 22.3587C26.5009 21.91 26.33 21.4831 26.0676 21.1133C25.8052 20.7434 25.4588 20.441 25.0569 20.2309C24.655 20.0208 24.2091 19.909 23.7556 19.9047L4.62055 19.8018C3.88364 19.7874 3.179 19.497 2.64601 18.9879C2.11302 18.4788 1.79051 17.7882 1.74233 17.0527C1.46124 12.3317 1.27773 9.97706 0.78818 5.26716C0.741052 4.92045 0.7687 4.56768 0.869233 4.23253C0.969766 3.89739 1.14089 3.58763 1.37107 3.32411C1.60125 3.06058 1.8852 2.84938 2.20378 2.7047C2.52236 2.56001 2.8682 2.4852 3.2181 2.48527Z" fill="#9B978A"/>
<path d="M3.13171 2.58295L50.5218 2.8376C51.2736 2.85594 51.9939 3.14366 52.5514 3.64838C53.1089 4.15311 53.4666 4.84127 53.5594 5.58756C53.5969 5.92925 53.5658 6.27498 53.4681 6.60453C47.4998 26.8481 38.8895 45.9864 29.4718 64.8261C29.2065 65.33 28.811 65.7536 28.3265 66.0528C27.842 66.352 27.2861 66.5159 26.7168 66.5275L11.0385 66.4433C10.5994 66.444 10.1682 66.3268 9.78989 66.1039C9.41158 65.881 9.10012 65.5606 8.88798 65.1761C8.67584 64.7916 8.57081 64.3573 8.58394 63.9184C8.59706 63.4794 8.72786 63.0521 8.96259 62.681C15.3574 49.7704 21.0153 37.1132 26.3338 23.731C26.48 23.3022 26.522 22.8449 26.4566 22.3966C26.3911 21.9484 26.22 21.5222 25.9573 21.1531C25.6947 20.7841 25.348 20.4828 24.9459 20.2742C24.5438 20.0655 24.0979 19.9555 23.645 19.9532L4.52224 19.8504C3.78533 19.836 3.08062 19.5455 2.54762 19.0365C2.01463 18.5274 1.69213 17.8368 1.64394 17.1013C1.37517 12.3681 1.17948 10.0134 0.689933 5.30348C0.652092 4.9605 0.687077 4.61339 0.792598 4.28487C0.898118 3.95634 1.07177 3.6538 1.30225 3.397C1.53274 3.14021 1.81483 2.93496 2.13008 2.79468C2.44534 2.6544 2.78666 2.58226 3.13171 2.58295Z" fill="#9B978A"/>
<path d="M3.04537 2.69281L50.4355 2.94745C51.1847 2.96785 51.9021 3.25469 52.4589 3.75647C53.0156 4.25825 53.3752 4.94209 53.4732 5.68517C53.5054 6.02689 53.4745 6.37163 53.3819 6.70214C47.4012 26.9579 38.7909 46.0962 29.361 64.9236C29.0977 65.4292 28.7027 65.8542 28.2177 66.1536C27.7328 66.4531 27.1759 66.616 26.606 66.625L10.9278 66.5408C10.4887 66.5415 10.0575 66.4243 9.67915 66.2014C9.30084 65.9785 8.98931 65.658 8.77717 65.2736C8.56503 64.8891 8.46007 64.4548 8.4732 64.0158C8.48632 63.5769 8.61704 63.1496 8.85178 62.7785C15.2465 49.8801 20.9166 37.223 26.2229 23.8407C26.3687 23.4113 26.4105 22.9534 26.345 22.5047C26.2795 22.0559 26.1086 21.6291 25.8462 21.2592C25.5838 20.8894 25.2374 20.587 24.8355 20.3769C24.4336 20.1668 23.9876 20.055 23.5341 20.0507L4.43596 19.948C3.69818 19.9365 2.99192 19.6469 2.45834 19.1373C1.92475 18.6276 1.60314 17.9354 1.55774 17.1989C1.27665 12.4779 1.09314 10.1232 0.603657 5.40108C0.567663 5.05907 0.603986 4.71331 0.710342 4.38627C0.816697 4.05923 0.990666 3.75823 1.22095 3.50281C1.45123 3.24739 1.73272 3.04328 2.04704 2.90373C2.36135 2.76418 2.70147 2.69231 3.04537 2.69281Z" fill="#9B978A"/>
<path d="M2.95894 2.791L50.3491 3.04565C51.1073 3.07148 51.8307 3.37004 52.3864 3.88648C52.9421 4.40292 53.2928 5.10256 53.3741 5.85684C53.4072 6.19932 53.372 6.54498 53.2705 6.87375C47.2899 27.1172 38.6674 46.2555 29.2374 65.0952C28.9721 65.599 28.5766 66.0226 28.0921 66.3218C27.6076 66.621 27.0517 66.7849 26.4824 66.7966L10.8164 66.7124C10.3773 66.7131 9.94609 66.5959 9.56778 66.373C9.18947 66.1501 8.87801 65.8296 8.66587 65.4452C8.45373 65.0607 8.3487 64.6263 8.36182 64.1874C8.37495 63.7485 8.50575 63.3212 8.74048 62.9501C15.1475 50.0395 20.8176 37.3947 26.1117 24.0001C26.2579 23.5713 26.2999 23.1139 26.2345 22.6657C26.169 22.2175 25.9979 21.7912 25.7352 21.4222C25.4725 21.0531 25.1259 20.7519 24.7238 20.5432C24.3217 20.3346 23.8758 20.2246 23.4228 20.2223L4.33686 20.1197C3.59995 20.1053 2.89531 19.8148 2.36232 19.3057C1.82933 18.7967 1.50682 18.1061 1.45864 17.3706C1.18987 12.6373 0.994119 10.2827 0.516827 5.57282C0.469565 5.22509 0.497467 4.87127 0.598719 4.53527C0.699971 4.19926 0.872188 3.88891 1.10371 3.62519C1.33523 3.36147 1.62069 3.15052 1.94075 3.00661C2.26081 2.86269 2.60802 2.78917 2.95894 2.791Z" fill="#9B978A"/>
<path d="M2.87267 2.90069L50.2628 3.15533C51.0114 3.17363 51.7285 3.46005 52.2838 3.96248C52.839 4.4649 53.1954 5.14994 53.2882 5.89298C53.3266 6.23465 53.2956 6.58058 53.1969 6.90995C47.204 27.1656 38.5815 46.3038 29.1393 65.1312C28.875 65.6386 28.4781 66.0647 27.9908 66.3643C27.5034 66.6639 26.944 66.8257 26.372 66.8326L10.7061 66.7484C10.267 66.7491 9.83575 66.6319 9.45744 66.409C9.07913 66.1861 8.76759 65.8656 8.55545 65.4812C8.34331 65.0967 8.23836 64.6623 8.25148 64.2234C8.26461 63.7845 8.39533 63.3572 8.63006 62.9861C15.037 50.0878 20.7072 37.4307 26.0012 24.0483C26.1469 23.6189 26.1887 23.161 26.1232 22.7123C26.0578 22.2635 25.8869 21.8367 25.6245 21.4669C25.3621 21.097 25.0157 20.7946 24.6138 20.5845C24.2119 20.3744 23.7659 20.2626 23.3124 20.2583L4.26326 20.1559C3.52634 20.1415 2.82171 19.851 2.28871 19.3419C1.75572 18.8329 1.43322 18.1423 1.38504 17.4068C1.1162 12.6858 0.932717 10.3312 0.455491 5.60909C0.41968 5.26912 0.455311 4.92542 0.560199 4.60005C0.665088 4.27468 0.836874 3.97484 1.0645 3.71979C1.29213 3.46474 1.5706 3.26012 1.882 3.11906C2.19339 2.97799 2.53082 2.90361 2.87267 2.90069Z" fill="#9B978A"/>
<path d="M2.78626 2.99848L50.1764 3.25312C50.9261 3.27436 51.6433 3.56337 52.1983 4.06782C52.7533 4.57226 53.1092 5.25878 53.2017 6.00302C53.2392 6.34471 53.2081 6.69044 53.1104 7.01999C47.1298 27.2635 38.4461 46.4014 29.0284 65.2412C28.761 65.746 28.3633 66.17 27.8766 66.4692C27.39 66.7683 26.8322 66.9318 26.261 66.9425L10.5828 66.8583C10.1447 66.8568 9.71508 66.738 9.33852 66.5142C8.96194 66.2904 8.65222 65.9698 8.44155 65.5857C8.23087 65.2016 8.12693 64.7681 8.14056 64.3303C8.15419 63.8924 8.28489 63.4663 8.51905 63.0961C14.9261 50.1855 20.6084 37.5407 25.8903 24.146C26.0361 23.7182 26.0784 23.2619 26.0135 22.8147C25.9487 22.3674 25.7787 21.9419 25.5174 21.5731C25.2561 21.2043 24.9111 20.9028 24.5106 20.6934C24.1101 20.4839 23.6657 20.3725 23.2138 20.3682L4.15224 20.2658C3.41446 20.2542 2.70828 19.9647 2.17469 19.4551C1.6411 18.9454 1.31942 18.2532 1.27402 17.5167C1.00525 12.7835 0.821766 10.4288 0.344474 5.71901C0.306633 5.37603 0.341618 5.02894 0.447139 4.70041C0.552659 4.37189 0.726388 4.06932 0.95687 3.81253C1.18735 3.55574 1.46944 3.35051 1.7847 3.21023C2.09995 3.06995 2.4412 2.99779 2.78626 2.99848Z" fill="#9B978A"/>
<path d="M4.63624 0.911862L52.0264 1.16651C52.777 1.1865 53.496 1.47292 54.0548 1.97452C54.6136 2.47612 54.9757 3.16016 55.0763 3.90429C55.1137 4.24597 55.0827 4.5917 54.985 4.92126C49.1516 25.1532 40.6762 44.2923 31.381 63.145C31.1197 63.6496 30.7269 64.0741 30.244 64.3737C29.7612 64.6732 29.2063 64.8366 28.6382 64.8465L12.9477 64.7622C12.5065 64.7673 12.0721 64.6533 11.6903 64.4322C11.3085 64.2111 10.9934 63.891 10.7784 63.5058C10.5633 63.1205 10.4561 62.6844 10.4682 62.2433C10.4803 61.8022 10.6113 61.3726 10.8472 60.9998C17.1561 48.0887 22.7283 35.431 27.961 22.0483C28.1018 21.617 28.1391 21.1586 28.07 20.7101C28.0009 20.2617 27.8272 19.8358 27.5631 19.4669C27.299 19.0979 26.9518 18.7963 26.5496 18.5863C26.1474 18.3763 25.7014 18.2639 25.2477 18.2581L6.13725 18.1554C5.39777 18.1415 4.69012 17.8518 4.15312 17.3433C3.61613 16.8347 3.28853 16.1438 3.23449 15.4062C2.92888 10.685 2.72086 8.33024 2.2068 3.6202C2.1585 3.277 2.18583 2.92738 2.28682 2.59584C2.38781 2.26429 2.56007 1.95884 2.7915 1.70084C3.02293 1.44285 3.3079 1.23856 3.62657 1.10228C3.94524 0.965994 4.28983 0.900995 4.63624 0.911862Z" fill="url(#paint0_linear_293_243)" stroke="url(#paint1_linear_293_243)" stroke-width="0.23" stroke-miterlimit="10"/>
<path d="M7.43059 5.60976C17.7187 5.01534 28.0664 4.7277 38.4009 4.62387L48.7596 4.56921C48.9687 4.57481 49.174 4.62647 49.3608 4.72051C49.5476 4.81454 49.7115 4.94864 49.8405 5.11323C49.9696 5.27783 50.0607 5.46886 50.1075 5.67273C50.1542 5.8766 50.1555 6.08826 50.1111 6.29265C44.3125 24.6002 28.2927 58.4335 28.2927 58.4335C28.2927 58.4335 41.9651 23.4476 47.664 5.43366C48.212 6.12309 48.4798 6.46777 49.0154 7.16938C45.5586 7.15081 42.1021 7.05869 38.6456 6.99109C28.2638 6.77594 17.8094 6.38878 7.4302 5.6833L7.43059 5.60976Z" fill="#F9FBFC"/>
<path d="M14.9661 13.0913C22.3246 12.4689 29.6803 12.3613 37.0359 12.266C37.1855 12.2715 37.3322 12.3092 37.4659 12.3764C37.5996 12.4437 37.7173 12.539 37.8109 12.6558C37.9045 12.7726 37.9718 12.9083 38.0083 13.0535C38.0448 13.1986 38.0495 13.35 38.0222 13.4972C35.4182 21.3164 28.3706 37.0797 28.3706 37.0797C28.3706 37.0797 33.5947 20.7549 36.1995 12.8009L37.1731 14.1055C29.8187 13.9802 22.4648 13.7323 14.9909 13.0302L14.9661 13.0913Z" fill="#F9FBFC"/>
<defs>
<linearGradient id="paint0_linear_293_243" x1="28.3206" y1="62.3563" x2="28.6431" y2="2.328" gradientUnits="userSpaceOnUse">
<stop stop-color="#985E3E"/>
<stop offset="0.06" stop-color="#BC7F5E"/>
<stop offset="0.13" stop-color="#D99A77"/>
<stop offset="0.19" stop-color="#EEAD8A"/>
<stop offset="0.25" stop-color="#FBB995"/>
<stop offset="0.31" stop-color="#FFBD99"/>
<stop offset="0.35" stop-color="#EFAF8B"/>
<stop offset="0.48" stop-color="#CA8C6A"/>
<stop offset="0.59" stop-color="#AE7352"/>
<stop offset="0.69" stop-color="#9E6343"/>
<stop offset="0.76" stop-color="#985E3E"/>
<stop offset="0.91" stop-color="#FFBD99"/>
</linearGradient>
<linearGradient id="paint1_linear_293_243" x1="1.89068" y1="32.7938" x2="55.0789" y2="33.0796" gradientUnits="userSpaceOnUse">
<stop stop-color="#985E3E"/>
<stop offset="1" stop-color="#FFBD99"/>
</linearGradient>
</defs>
</svg>
